<?xml version="1.0" encoding="UTF-8"?><svg id="uuid-6786aa25-830b-4955-87ce-64cda346c6ea" xmlns="http://www.w3.org/2000/svg" viewBox="0 0 1080 1080"><path d="M581.79,887.25c-6.47,4.93-17.66,1.2-22.25-5.16l-5.15-8.11c-2.52,9.77,3.42,22.97-12.38,20.5-7.57-1.18-7.69-8.64-9.47-14.5-28.05,17.62-60.55,35.62-92.28,45.62-37.08,11.69-98.2,12.3-129.14-14.35-15.19-13.09-26.55-26.98-36.64-43.88-15.04-25.2-42-33.45-66.71-44.65-40.36-18.3-28.54-49.59-50.96-80.1-8.33-11.33-24.91-19.04-34.99-28.4-6.88-6.38-7.73-16.44.87-21.43-3.5-5.56-16.54-20.73-8.17-26.18,1.18-.77,8.77-3.1,10.39-3.31,9.92-1.32,20.76,4.38,27.76,11.06.25-12.32.51-25.88,16.87-19.01,8.52,3.58,9.77,11.18,14.4,18.14,3.26-2.87,3.92-7.36,6.43-10.69,3.38-4.5,17.42-13.01,22.9-13.93,2.93-.49,12.16-.74,14.41.6,10.23,6.04-6.3,25.41-9.74,31.49-10.76,19.03-13.43,42.41-4.87,62.79,6.59,15.69,15.96,28.11,33.81,30.85,1.21-1.2-7.71-10.42-8.91-12.06-6.93-9.44-17.79-26.29-13.74-38.44.33-.98,2.52-3.89,3.56-4.2,6.64-1.96,5.87,5.6,8.83,9.72,2.92,4.08,8.55,6.54,12.01,10.26,11.11,11.97,11.48,30.67,16.5,45.17.25.71,1.77,6.69,3.17,4.97,1.11-9.2,6.37-17.31,8.35-26.35,3.05-13.92,3.32-24.85-4.22-37.32-3.6-5.96-10.1-9.75-12.73-16.39-1.75-4.41-6.24-24.62-3.78-27.82,4.2-5.46,9.76,3.58,12.81,5.94,9.63,7.44,15.66,8.11,22,20.83,1.57,3.16,1.91,6.29,3.7,9.14,3.52-.03,12.46-18.27,14.99-21.83,10.44-14.72,31.55-31.05,49.64-34.31,8.01-1.44,20.52,1.52,27.19-1.93,6.17-3.19,10.63-15.13,15.64-20.34,3.36-3.49,16.22-13.26,18.53-4.69.77,2.85-1.5,4.6-2.26,7.26-1.33,4.66-1.75,9.57-4.07,13.92l-8.74,9.67c7.51,1.34,15.13.39,22.68.87,8.57.55,15.81,2.29,24.84,1.7,14.44-.94,22.51-8.21,35.5-10.75,26.08-5.1,55.1,13.11,84.44,10.79,18.46-1.46,40.02-18.09,58.01-14.4,3.15.65,8.76,5.23,9.68,8.35,1.44,4.85-4.79,9.04-3.92,10.28,18.63,9.53,12.98,27.74-6.92,29.54-.25,6.74-1.44,9.79-7.37,13.16-10.64,6.04-27.76,9.92-39.68,13.01,4.94,10.59,2.79,28.47-5.53,36.87-3.95,3.99-15.21,9.93-20.56,11.99-2.3.89-6.5,1.11-8.12,2.16-1.46.94-8.2,10.92-11.17,13.67-8.84,8.17-31.09,21.55-32.55.85l-1.7-.42c-4.1,6.19-11.91,12.93-18.08,17.48-11.7,8.64-34.6,21.28-31.52-4.97,1.58-13.51,13.62-27.01,23.03-36.08-22.35,1.18-4.06-20.78,0-30.4-16.31-.09-11.55-16.14-4.28-24.84-8.73-.97-14.5-6.46-17.98-14.16-7.17-1.12-14.55.1-21.74-.53-18.04-1.59-31.26-10.77-50.68-9.35-5.09.37-12.04,1.64-15.81,5.16,2.7.41,5.99.52,8.56,1.29,2.14.64,13.08,5.71,14.53,6.89,4.52,3.67,2.59,8.33-2.95,8.98-13.1,1.53-21.96-1.58-35.78,3.62-31.94,12.01-50.79,41.45-63.91,71.43-26.41,60.34,48.46,116.85,102.26,120.25,19.26,1.22,37.93-.69,53.52-12.83-16.75-3.6-37.4-.73-51.67-11.29-27.31-20.23-49.46-49.44-54.41-83.5-.81-5.56-3.28-26.37-1.62-30.49,3.35-8.28,14.6-4.12,19.08,1.02l7.24,10.31c.09-16.73,6.86-48.05,28.74-46.3,4.03.32,7.03,1.98,7.1,6.45.04,3.11-2.81,6.01-2,9.01,7.64-13.3,27.21-25.15,42.8-22.25,3.91.73,2.84,3.28,1.72,5.96-3.79,9.11-15.74,12.11-20.11,21.01,2.55.12,4.16-2.4,6.87-3.41,4.77-1.77,12.31-1.63,12.04,5.09-.15,3.59-10.6,16.84-13.06,21.29-16.07,28.98-17.42,60.74,5.71,86.25,23.22,25.61,61.6,10.37,86.53-4.29l.4-.43c-2.24-2.19-4.07-4.7-5.16-7.67-2.13-5.75-5.01-24.35,1.77-27.44,6.15-2.81,4.43,3.6,6.06,7.61,3.04,7.46,12.73,8.07,19.62,9.07-2.4-7.37-4.14-15.8-3.46-23.58.24-2.74.6-7.69,4.04-7.97,3.75-.3,2.63,6.5,3.04,8.66,1.59,8.34,11.24,10.77,18.64,10.91-1.4-6.77-.13-17.7,5.12-22.72,1.28-1.23,3.06-2.61,3.44,0,1.27,8.87,1.87,21.4,13.28,22.71,18.48,2.12,35.22-13.71,52.01-19.09,28.93-9.27,63.38-6.8,92.31,1.1.39-1.48-.61-1.71-1.27-2.57-7.78-10.08-26.94-22.89-39.63-24.62-18.11-2.46-21.89,4.53-36.19,10.47-13.24,5.5-23.38,7.07-21.41-11.55-5.26,1.6-8.68,6.09-13.7,8.13-30.29,12.29-30.79-17.31-7.7-26.14.24-1.18.18-1.09-.55-1.77-1.36-1.29-3.07-1.54-4.46-3.91-8.01-13.65,10.57-25.48,21.47-28.81,12.03-3.68,23.97-3.05,35.78,1.09-6.66-14.36,5.13-24.58,18.9-25.22,2.25-1.53-1.57-8.51,3.94-12.34,5.14-3.57,8.7-1.05,13.99-.14,4.43-13.45,7.6-24.21,24.42-22.27,6.31.72,8.37,3.95,11.99,8.55,6.24-10.28,11.15-25.67,26.35-22.91,4.78.87,8.43,8.35,9.47,12.8,6.04,26-18.66,53.07-20.81,78.24-.76,8.85.58,24.26,1.97,33.13,1.72,10.99,5.6,21.42,10.02,31.53,1.51.21.85-1.95.74-2.88-2-18.11-5.85-31.58-2.21-50.4,3.08-15.98,14.77-35.72,30.58-17.82v-20.99c0-2.33,2.43-11.12,3.41-13.72,2.86-7.56,9.27-15.13,18.03-13.64,1.45-3.2.37-5.56,2.07-9.1,5.18-10.8,24.7-16.51,25.74.04,5.92-15.02,34.29-26.92,35.97-3.43,6.37-8.42,24.99-25.12,33.16-10.89,6.16,10.74,2.35,18.26-1.03,28.88,3.21-.8,19.82-1.79,21.03-.05,3.87,23.26-22.47,31.96-36.86,44.63-3.93,3.46-7.52,7.41-10.72,11.55,5.98-.32,9.29-2.01,15.4,0,15.02,4.94,17.84,22.74,9.28,34.96-15.69,22.38-59.21,32.59-80.79,58.83-11.84,14.39-2.3,28.54-9.23,43.88-4.9,10.82-23.42,25.68-33.97,31.13-13.2,6.83-49.23,22.28-63.02,21.85-8.38-.26-8.28-2.67-8.99-9.89-.12-1.26.74-2.5-1.25-2.14-7.11,10.41-15.22,20.43-26.41,26.7-12.68,7.1-35.57,11.98-34.4-9.57-11.43,16.05-47.11,32.87-58.25,8.58-9.27,12.29-24.56,24.92-41.02,20.45-9.15-2.49-9.42-10.53-9.09-18.75-7.03,2.08-26.56,5.55-28.21-4.76-1.58-9.86,6.7-17.21,14.51-21.37-14.27-8.22,1.2-20.09,10.56-23.71,14.68-5.67,30.22-3.25,45.12.15-2.17-9.22,4.15-17.16,12.62-20.36,19.49-7.36,45.46,1.18,63.61,9.23-3.82-16.58,11.22-31.07,25.48-36.63,29.37-11.46,58.09,1.9,85.87,10.93.39-1.49-.63-1.71-1.28-2.57-7.42-9.76-21.03-26.07-31.55-31.84-20.17-11.06-70.26-14.95-92.37-9.86-16.65,3.83-39.11,18.44-30.46,38.49,1.56,3.61,11.48,13.39,1.09,13.52-5.54.07-22.5-2.64-27.12-5.47l-5.02-4.83v14.99ZM547.28,720.01c-4.24-5.18-11.81-1.34-11.81,5.33,0,13.36,18.58,2.94,11.81-5.33Z" fill="#1d1e1f"/><path d="M455.28,265.98c-1.5,1.38-6.58,10.11-7.72,12.41-2.85,5.78-4.48,12.27-7.1,18.17,8.37-1.23,16.84-2.56,25.26-3.42,28.12-2.86,55.94-8.21,83.94-11.13,35.14-3.67,62.23,5.77,89.94-23.13,14.31-14.93,17.64-24.51,26.23-42.3,12-24.87,24.83-40.49,51.68-49.39,15.82-5.25,47.81-8.42,63.61-3.63,7.61,2.31,20.83,11.02,17.55,20.4l.6.81c17.07,4.84,38.08,8.51,52.21,19.78,12.03,9.59,10.55,17.26-5.92,17.06,7.56,5.31,27.68,16.3,31.04,24.64,3.34,8.3-1.85,9.44-8.77,10.07-.36.35,5.81,4.97,2.64,9.07-4.71,6.09-30.84-2.02-37.76-3.93,3.49,5.64,1.39,8.1-4.27,9.86-11.98,3.72-27.16-3.1-39.8-3.9-4.94-.31-10.07.29-15.02.04l9.12,5.43c11.62,13.78-9.19,19.38-19.81,19.47-15.24.13-31.86-8.07-44.54-7.85-7.3.13-14.69,6.56-21.88,9.03-17.27,5.92-31.95,2.58-49.2,3.9-1.15.09-5.18.42-5.57,1.69,14.58,2.17,29.28,6.06,43.05,11.35,13.19,5.07,19.18,10.82,30.49,17.48,7.39,4.35,13.5,5.2,21.14,7.98,7.08,2.57,14.45,6.4,21.8,7.74-10.66-10.33-8.41-21.53,2.64-30.33,15.33-12.21,35.77-8.66,52.17-.5-8.86-22.87,21.03-29.3,33.41-13.28,1.62,2.1,1.95,5.06,4.27,6.42,5-18.63,35.46-35.56,48.69-15.7,7.04,10.57,4.26,22.66-2.07,32.77l-8.92,12.91c10.93-1.89,31.03-3.64,38.53,6.44,5.46,7.33,1.96,21.41-1.56,29.27-1.97,4.41-5.19,7.84-6.99,12.27,12.06-3.4,42.26,4.26,44.48,18.48.55,3.52.39,14.64-1.02,17.72-1.32,2.89-11.63,6.83-14.99,7.28-19.75,2.66-29.4-1.77-42.66-15.18-1.25-1.27-.71-3.18-2.94-2.59-.28,9.15-6.68,20.1-16.23,21.9-19.18,3.61-27.05-8.12-33.88-23.62-1.36,6.71-3.15,14.2-8.1,19.32s-22.39,7.45-29.53,6.34c-7.66-1.2-17.05-12.65-13.33-20.5-1.12-.83-10.23,4.32-12.4,5.15-15.18,5.82-37.29,14.41-52.44,5.3-3.16-1.9-8.05-9.87-8.04-13.46,0-8.21,7.68-11.39,12.93-15.84-12.48-.78-43.01-8.32-46.7-22.26-3.54-13.35,8.13-16.71,17.22-21.37.9-.46,1.62.45,1.22-1.79-7-1.01-15.07-4.09-21.43-7.27-11.98-6-19.69-16.11-32.54-21.42-15.28-6.31-33.82-9.1-50.09-11.58l-.42,1.7c1.25.14,2.2.76,3.03,1.68,3.27,3.65,8.44,9.14,10.83,13.17,5.63,9.45,7.18,27.57,16.37,33.31,6.36,3.97,14.02,4.88,20.7,10.13,10.58,8.32,21.11,30,24.82,42.85.93,3.23,2.89,8.05-.76,10.29-6.51,4-10.27-8.65-14.27-12.39-6.82-6.37-24.06-12.53-33.28-13.83-8.68-1.23-12.79.35-21.19-4.5-25.42-14.69-6.95-53.81-26.89-69.91-29.04-23.45-63.33-10.53-96.27-9.86-33.45.68-59.6.79-90.55,16.46-11.43,5.79-23.56,15.92-34.95,20.73-9,3.8-21.09,5.61-30.82,6.44-.56,2,.52,1.45,1.09,1.95,21.11,18.74,31.22,30.6,62.7,28.01,34.51-2.84,49.1-32.71,79.25-44.95,15.52-6.3,41.07-11.28,57.69-9.76,15.53,1.43,32.6,10.08,34.7,26.97,3.86,31.05-39.55,65.07-63.54,78.46-20.92,11.68-47.02,6.93-66.31-5.97-7.51-5.02-10.83-12.08-19.36-16.62-11.93-6.35-32.96-1.32-47.29-2.39-14.55-1.09-30.76-10.82-41.91-19.76-9.89-7.93-9.89-14.05-25.33-11.59-24.47,3.9-23.76,37.01-42.18,46.91-8.66,4.66-19.4,2.45-26.72-3.61-1.58-1.31-1.62-3.08-4.11-4.46-4.57-2.53-20.61-6.25-25.79-5.72-22.8,2.34-44.26,5.09-66.45-3.96-7.32-2.99-10.68-6.62-19.38-8.03-3.88-.63-16.29.13-17.31-3.27-2.44-8.12,12.5-12,18.34-13.01s14.66-2.13,20.48-2.64c4.03-.35,8.34.23,12.41-.02-3.85-4.25-8.45-6.72-12.43-11.12-1.54-1.7-2.4-3.96-3.86-5.56-3.13-3.43-17.04-16.97-17.05-20.58-.02-9.6,24.5-1.41,29.91-1.3-10.25-14.55-9.25-34.83,2.99-47.87,10.83,8.05,18.83,19.62,24.88,31.57,6.99,13.79,7.99,25.89,22.38,35.01,11.87,7.52,26.16,6.52,38.23,13.17,8.95,4.93,15.07,12.76,19.01,22.09,6.9-15.07,17.5-27.18,30.99-36.66,34.33-24.13,73.65-20.93,93.95-64.52,8.26-17.74,11.95-58.15-2.86-73.18-20.35-20.65-50.53-11.48-53.18-48.76-1.16-16.31,1.14-23.47,9.44-36.89,7.92-12.81,18.06-23.24,32.96-27.86,10.29-3.19,20.87-.31,19.23,12.39-.46,3.59-6.95,13.01-3.34,14.62,8.9,3.97,22.9-16.19,29.11-21.41,7.35-6.19,26.47-17.46,33.28-5.86,4.88,8.3-5.36,28.49,11.74,23.47,15.82-4.65,32.94-37.33,52.68-27.08,11,5.72-.09,16.54,3.8,26.19,2.99,7.43,11.35,1.69,15.45-1.7,10.74-8.89,17.68-24.35,31.51-29.31,6.7-2.4,13.72-1.64,17.59,5,4.46,7.66-1.46,13.31,1.84,20.44,7.24,7.53,23.64-15.98,33-15.89,4.75.04,10.11,7,11.15,11.14.96,3.81-.79,7.44,2.66,10.19,6.83,5.44,18.48-1.22,24.57-5.16,5.03-3.25,9.36-10.34,16.31-5.73,7.94,5.26,2.19,25.07-.52,32.67-12.85,36.09-40.51,58.11-70.62,79.29-22.77,16.02-40.02,27.18-69.23,28.42-22.07.94-57.49-11.25-75.54,5.41ZM460.17,407.93c-3.97,9.49-3.62,12.08,3.87,18.82,7,6.29,11.38,7.98,21,6.49,17.56-2.71,31.42-11.72,43.22-24.45,6.9-7.44,24.91-27.78,29.39-35.71,8.51-15.09-3.03-36.64-21.44-30.86-.89.28-2.59.21-2.39,1.44,4.86,3.65,10.47,1.36,15.35,4.79,5.15,3.61,4.49,9.61-1.85,8.78-7.34-.97-13.39-12.34-18.21-12.39-1.14-.01-12.43,6.05-12.41,6.98,4.24,4.64,6.88,2.57,11.45,3.04,7.3.75,26,13.39,18.54,20.98-4.91,4.99-17.36-4.16-21.05-8.14-1.83-1.97-2.58-5.14-3.86-6.42-.4-.4-9.46-5.37-10.02-5.48-3.58-.72-10.74,6.74-13.91,8.88,3.24,1.52,7.43,6.63,10.51,7.49,2.98.84,4.35-1.06,8.92,1.33,6.24,3.27,26.04,17.73,11.89,23.36-7.01,2.79-15.58-3.46-19.2-9.19-1.79-2.84-2.17-7.54-3.59-9.26-2.13-2.59-10.64-5.96-13.41-8.91l-14.83,14.03c3.92,1.51,10.15,7.57,13.66,8.6,2.15.63,4.24.12,6.26.59,7.67,1.76,18.88,12.17,13.03,20.34-5.3,7.39-13.76-.86-17.04-6.05-1.17-1.85-3.99-8.99-4.5-9.42-3.19-2.64-11.97-4.69-15.43-8.39-2.51-.4-9.7,11.74-11.37,14.03.05.69,11.16,6.66,11.92,6.89,4.8,1.42,11.28-.51,15.9,3.8,2.86,2.66,5.82,10.36,1.59,12.76-7.78,4.43-16.5-3.23-18.33-10.58l-13.67-8.16ZM826.98,343.93c-.67.53-4.12,5.4-4.34,6.36-3.44,15.05,22.46,14.41,19.33-.84-1.41-6.87-9.63-9.8-14.99-5.52ZM809.61,418.21v-1.7h-.84v1.7h.84Z" fill="#1d1e1f"/><path d="M274.11,204.27c17.96-2.03,46.63,7.54,58.41,21.63,19.37,23.16,17.53,56.79,1.57,81.2-20.88,31.93-50.07,33.39-82.63,17.87-54.75-26.1-30.07-114.75,22.65-120.7Z" fill="#1d1e1f"/><path d="M411.9,581.54c-6.71,8.38-17.47,21.44-26.8,26.74-18.3,10.4-56.52,23.88-77.81,22.38-6.05-.43-10.98-.5-11.61-7.23-.85-9.07,2.06-9.68,4.96-16.54,10.77-25.51,20.52-48.7,24.84-76.25,3.8-24.24-3.33-49.28,6.03-72.78,3.52-8.85,11.23-16.52,21.29-17.08,39.74-2.19,68.65,10.39,79.05,50.73,5.01,19.42.56,35-2.47,54.04-.34,2.1.77,3.71.26,6.1-1.32,6.22-13.32,24.37-17.74,29.88ZM399.08,473.31c-3.39-4.08-19.82-10.98-25.22-11.18-2.42-.09-16.96,1.84-19.27,2.55-6.61,2.05-7.72,7.88-8.23,14.04-.9,10.76,5.49,17.93,6.65,28.25,2.52,22.39-5.41,37.12-12.52,56.69-1.76,8.01-8.43,19.82-9.5,27.4-.82,5.82,3,11.62,9.48,10.31,7-1.42,28.4-16.65,34.8-21.76,26.87-21.48,39.77-53.58,31.36-87.73-.74-3-5.97-16.66-7.56-18.57Z" fill="#1d1e1f"/><path d="M937.8,482.76c-10.98-10.03-36.79-12.12-51.63-13.89-4.38-.52-14.2-2.17-17.88-1.86-8.12.67-9.2,7.16-10.46,13.57-4.83,24.58-7.34,49.67-8.85,74.25-1.43,23.31-2.72,46.97-4.41,70.04-.7,9.57-7.45,21.43-17,11.42-6.43-6.75-2.36-15.79-1.69-24.03,1.5-18.26.71-39.74,4.04-56.79,4.32-22.13,5.21-44.89,8.83-67.41,1.88-11.73,5.6-27.65,15.39-35.16,13.95-10.7,34.96-6.3,50.6-1.73,6.84,2,10.71,4.04,18.15,5.83,8.99,2.16,28.5,15.57,32.49,24.04,6.82,14.47,2.5,25.19-4.11,38.18-5.68,11.16-13.27,21.27-23.05,29.21-4.15,3.37-15.81,8.13-14.99,14.11.48,3.51,7.37,3.48,10.74,5.61,10.95,6.93,11.91,16.49,16.28,27.41,3.05,7.62,6.3,18.24,11.54,24.44,5.77,6.83,25.36,8.72,26.42,17.36.4,3.27-3.82,8.55-7.1,8.65-3.98.12-13.46-1.11-17.48-2.16-23.17-6.04-22.81-23.85-28.97-42.13-3.31-9.82-15.45-22.29-24.81-26.59-12.02-5.52-17.6-4.46-29.66-5.45-11.35-.93-12.39-10.86-3.48-16.8,10.34-6.9,28.86-8.89,40.85-14.83,14.22-7.04,33.69-25.39,36.33-41.64.92-5.67-2.06-9.96-6.09-13.64Z" fill="#1d1e1f"/><path d="M537.93,434.75c18.7-1.9,49.32,2.88,67.88,6.98,7.81,1.73,23.28,4.05,22.22,14.53-.94,9.32-14.67,5.4-20.13,5.59-3.27.11-6.21,1.83-9.38,1.8-14.22-.15-29.91-3.46-44.34-.65-10.12,1.97-13.88,6.63-15.88,16.68-1.22,6.16-1.1,31.92-.15,38.29,1.22,8.18,7.09,8.87,14.09,9.89,13.28,1.94,27.79,1.03,41.09,2.21,10.57.94,29.66,1.25,22.18,17.42-2.36,5.12-7.73,7.77-12.89,9.27-7.14-1.95-14.33-3.78-21.54-5.49-13.85-3.28-32.61-8.6-44.71,1.87-8.57,7.41-6.56,13.3-7.71,23.13-.34,2.93-1.49,5.48-1.74,8.54-1.06,13.24,2.74,30.23.68,43.52-2.82,18.2-22.13,10.12-25.76-4.66-1.39-5.65.48-6.21,1.04-10.63,3.9-30.77,9.08-63.41,10.27-94.25.12-3.05-1.27-6.25-.72-10.14.69-4.86,3.45-11.8,4.18-16.37,1.38-8.62.74-18.81,1.83-27.29.95-7.32,2.64-6.97,2.57-16.45-.07-8.91,9.47-13.02,16.88-13.78Z" fill="#1d1e1f"/><path d="M803.12,464.11c30.32,29.94,22.07,81.37-3.81,111.28-9.8,11.32-23.31,14.14-35.56,21.83-24.68,1.38-55.22-2.35-66.39-27.74-7.75-17.62-9.39-35.97-4.83-54.63,3.32-13.58,25.7-52.39,37.68-59.11,23.02-12.91,54.02-10.27,72.91,8.39ZM761.43,467.25c-37.86,6.04-60.06,53.32-50.96,88.26,3.74,14.36,18.09,25.92,32.88,27.12,11.43.93,28.81-11.15,38.1-17.4,2.01-1.35,5.19-1.85,7.19-3.94,1.09-1.14,7.43-12.78,8.3-14.83,6.95-16.54,7.84-48.34-1.33-64.11-6.28-10.8-22.1-17.02-34.18-15.09Z" fill="#1d1e1f"/><path d="M132.8,441.52c-1.26,6.34,2.38,11.53,3.41,16.73,4.64,23.22,7.03,62.94,2.55,86.11-2.63,13.64-9.99,28.87-11.53,42.43-2.04,17.91,8.19,7.78,17.53,7.25,10.99-.62,15.21,3.54,24.21,7.06,8.14,3.19,16.42,3.91,25.18,2.94,9.29-1.02,21.63-9.27,29.15-.75,4.89,5.53,3.33,10.89-.8,16.26-8.12,10.54-23.97,14.54-36.73,12.7-13.2-1.91-26.04-11.65-38.71-11.89-6.84-.13-15.91,3.99-23.19,5.06-8.2,1.2-17.35,3.35-21.06-6.12-2.88-7.37.98-12.48,1.8-19.13,3.39-27.26,11.1-53.8,13.03-81.2,1.09-15.53.75-45.57-4.08-60.36-1.8-5.52-9.4-10.19-4.96-17.23,6.18-9.81,17.1-6.72,24.19.14Z" fill="#1d1e1f"/><path d="M227.47,503.62c3.36,4.08,15.31,14.14,20.28,15.26,11.52,2.59,26.11-11.51,31.73-20.54,7.84-12.6,12.33-30.73,19.52-44.72,1.45-2.83,3.29-6.68,6.66-7.11,6.59-.83,10.89,6.52,10.63,12.37-.94,21.67-8.54,32.82-22.26,48.02-7.69,8.52-15.82,16.72-23.13,25.7-1.34,1.65-5.81,7.53-6.3,9.12-1.68,5.38-.9,28.48-.61,35.46.17,4.08.49,9.67.91,13.66.98,9.38,7.68,27.7,5.17,35.18-5.47,16.31-24.84,11.64-26.21-4.72-1.91-22.86,2.78-48.77-.6-72.21-1.25-8.64-12.85-21.61-19.9-26.36-2.24-1.51-4.18-1.38-6.02-2.54-9.08-5.72-18.48-19.27-22.24-29.16-.81-2.14-4.39-12.77-4.58-14.35-1.08-9.35-2.8-21.06-1.85-30.61.61-6.13,3.65-11.7,10.63-10.68,10.35,1.51,8.73,21.76,10.15,29.29,1.88,10,11.58,31.15,18.02,38.95Z" fill="#1d1e1f"/><path d="M641.97,612.45c4.42,3.57,12.85-1.99,17.54-2.99,26.67-5.71,44.45,17,72.39,12.44,5.43-.89,14.2-7.73,18.66-1.12,3.98,5.9-.36,12.18-6.03,14.61-9.28,3.98-27.29,8.02-37.28,7.34-15.02-1.02-31.95-10.43-47.1-11.19-8.54-.43-14.64,1.94-22.49,3.18-11.17,1.76-18.7-2.88-19.89-14.76-1.81-18.16,7.18-40.18,11.56-57.81,7.41-29.87,11.53-60.76,18.2-90.6.39-1.74.1-3.61.59-5.41,1.26-4.69,5.69-18.31,10.51-19.46,6.61-1.58,10.33,1.79,11.01,8.33.87,8.4.24,21.74-1.72,30.09-1.15,4.91-4.24,10.76-5.4,16.01-5.36,24.22-9.32,49-15.03,73.21-2.09,8.86-7.14,20-8.16,28.75-.22,1.87,1.37,8.37,2.64,9.4Z" fill="#1d1e1f"/><path d="M463,462.18c7.75-6.38,24.58-.67,23.53,10.19-1.18,12.08-17.11,20.75-26.79,10.96-5.49-5.55-2.13-16.71,3.27-21.15Z" fill="#1d1e1f"/><path d="M461.63,564.88c2.32-.67,9.66-.37,12.1.39,3.73,1.16,9.78,8.46,9.38,12.51-1.05,10.77-12.97,14.84-22.31,13.28-13.48-2.25-5.9-24.22.83-26.18Z" fill="#1d1e1f"/><rect x="808.77" y="416.5" width=".84" height="1.7" fill="#1d1e1f"/></svg>