<?xml version="1.0" encoding="UTF-8"?><svg id="uuid-77e86dbc-00a0-458d-8280-bd7c0263e5ec" xmlns="http://www.w3.org/2000/svg" viewBox="0 0 815.78 814.26"><g id="uuid-abe8a81d-cbf4-475e-b9d5-4c1cedf122a3"><path d="M116.93,174.94c.1.5.43.74.81.79,0,.04,0,.08,0,.12,2.18,10.04,7.71,19.26,15.57,25.89,6.01,5.07,13.25,8.15,20.66,10.75.81.36,1.63.7,2.47.98.67.22,1.35.4,2.04.56,2.63.88,5.26,1.73,7.84,2.64.45.16.8.02,1.04-.24,11.84,3.09,24.8,1.21,35.17-5.35,10.4-6.58,18.5-17.38,23.76-28.36,3.05-6.38,5.22-13.13,6.47-20.09.09-.5-.13-.89-.46-1.14,1.11-13.4-1.92-26.9-8.62-38.55-.23-.41-.6-.54-.96-.52-6.33-12.82-20.55-18.53-33.52-22.26-7.17-2.06-14.7-3.5-22.18-2.98-7.44.51-14,3.27-20.29,7.15-5.17,3.18-11.32,6.59-13.96,12.3-13.82,15.8-19.8,37.67-15.83,58.32Z" fill="#fbfcfe"/><path d="M792.7,304.22c4.29-3.33,6.36-8.72,7.85-13.83,1.96-6.71,1.51-13.02-3.94-17.88-4.96-4.42-11.73-7.14-18.12-8.65-6.15-1.46-12.48-1.73-18.72-.9,6.54-8.06,10.84-18.3,11.1-28.69.14-5.65-1.99-10.59-7.16-13.26-5.21-2.69-11.62-3.52-17.41-3.57-5.1-.05-10.13.71-14.98,2.17,9.6-11.09,19.82-25.17,13.08-39.94-3.1-6.78-9.45-11.38-17.02-11.23-7.36.14-14.51,3.46-20,8.23-4.67,4.06-8.22,9.36-10.17,15.21-2.61-7.9-9.5-13.82-18.1-14.77-9.25-1.02-19.88,4.92-17.68,15.44.34,1.65.86,3.43,1.6,5.11-10.94-5.61-23.18-8.88-35.44-5.97-11.69,2.78-26.6,14.48-20.19,28.06,2.14,4.53,5.94,7.54,10.2,9.86-16.94-2.3-34.49-3.51-50.55,3.25-6.7,2.83-16.33,7.87-15.11,16.6,1.14,8.17,9.84,13.62,16.7,16.7,5.35,2.4,10.99,3.9,16.71,5.02-1.31,1.8-2.28,3.89-3.05,5.91-.95,2.47-1.47,5.35-.59,7.82-3.25-1.24-6.51-2.42-9.91-3.11-6.56-1.34-13.19-.38-19.81-.44-12.03-.11-23.74-4.59-32.89-12.35-.03-.03-.03-.07-.07-.1-6.36-6.2-13.19-11.42-22.2-12.77-8.34-1.25-17.17.14-25.09,2.89-7.04,2.44-13.86,6.44-17.98,12.83-1.81,2.8-3.3,6.42-1.79,9.67,1.35,2.92,4.58,4.38,7.54,5.11,8.71,2.14,17.86.99,26.67-.58-21.63,13.86-38.24,34.09-58.98,49.17-.42.3-.53.75-.46,1.16-25.39,14.01-51.83,26.05-79.06,36.01,0,0-.02,0-.03,0-.04.02-.08.03-.12.05-.28.1-.55.21-.83.31-.07.02-.11.07-.17.1-12.21,5.13-24.55,9.94-37.02,14.39-12.23,4.37-24.83,9.27-37.98,9.35,0,0-.01,0-.02,0-.16-.04-.34-.06-.53-.03-8.5,1.58-17.11,2.46-25.75,2.56-7.8.1-17.26.55-24.31-3.31-3.09-1.69-5.84-4.42-6.79-7.89-1-3.62.27-7.29,2.5-10.19,4.6-5.96,13.19-9.33,20.44-6.75.12.22.34.39.68.45,7.09,1.24,14.27,2.47,21,5.11,6.5,2.55,12.12,6.54,19.33,6.77,3.41.11,6.82-.41,10.14-1.13,1.77-.38,3.52-.83,5.27-1.3,1.16-.31,2.46-.57,3.4-1.37,3.82-3.23-.35-9.23-3.25-11.38-3.79-2.83-8.34-3.49-12.81-4.42,6.82-.49,13.55-1.93,19.98-4.31,4.19-1.55,8.24-3.48,12.07-5.77,3.42-2.05,7.23-4.35,9.54-7.69,1.9-2.75,2.51-6.75.4-9.58-2.24-3.02-6.17-2.73-9.51-2.69-9.8.13-19.49-1.72-28.8-4.69-10.7-3.42-20.87-8.26-30.81-13.46-4.55-3.67-9.13-7.34-13.89-10.75-4.9-3.5-10.04-5.32-15.86-6.7-5.79-1.37-11.65-2.67-17.64-2.12-5.76.53-11.42,2.28-16.79,4.37-9.43,3.67-15.77,10.7-19.44,20.05-3.74,9.53-4.57,20.25-3.27,30.35,1.18,9.16,4.21,18,8.87,25.93-6.55-6.47-12.67-13.31-16.94-21.6-5.26-10.22-9.06-22.06-9.47-33.63.41-2.51.88-5.01,1.47-7.49,3.16-13.24,8.75-25.85,16.38-37.11,3.99-5.88,8.57-11.33,13.59-16.34.23.06.49.05.76-.08,2.5-1.22,4.63-3.09,7.17-4.24,3-1.36,6.41-.92,9.52-.18,5.68,1.35,10.79,4.39,14.78,8.64.15.16.31.24.47.29.05.09.09.18.18.26,9.35,9.16,20.62,16.15,32.98,20.49.05.02.09,0,.14.02.12.24.35.44.7.52,13.95,3.03,28.21,1.83,42.29.47.16.09.34.16.58.15,3.91-.14,7.46,1.56,10.76,3.49,2.79,1.63,5.41,3.54,7.81,5.7,4.84,4.34,8.76,9.57,11.6,15.42.11.23.27.36.45.45,0,0,0,.02.01.03,2.09,3.19,3.01,7,5.36,10.04,2.03,2.64,4.78,4.62,7.82,5.94,7.31,3.16,15.65,2.14,23.06-.11,14.51-4.41,26.67-14.18,37.12-24.87.09-.09.13-.19.18-.28.24,0,.49-.07.71-.26,10.58-8.99,20.65-18.57,30.16-28.68.16-.17.23-.35.27-.54.14-.08.28-.19.39-.34,8.61-11.75,16.86-26.74,10.3-41.37.28-.4.37-.96-.03-1.44-3.99-4.74-7.59-9.5-13.34-12.18-5.67-2.64-11.86-4.01-18.08-4.51-6.09-.49-12.15-.09-18.17.76-.02,0-.05,0-.07,0-6.91.98-13.77,2.56-20.54,4.18-.17-.04-.35-.05-.55,0-12.99,3.55-25.33,9.43-35.9,17.82-5.66,4.49-10.35,10.11-16.11,14.47-6.06,4.59-13.48,7.44-20.46,10.3,0,0-.01,0-.02.01-15.8,5.24-33.33,3.99-48.17-3.65-.22-.11-.42-.13-.62-.11-8.83-5.71-15.23-14.42-23.84-20.39,9.8-.93,19.45-2.98,28.78-6.16.23.05.48.03.75-.13,10.67-6.43,21.33-12.85,32-19.28.1-.06.15-.13.22-.21.28.12.61.14.95-.03,13.19-6.63,27.45-10.99,42.1-12.83.34-.04.6-.21.78-.44.2.09.41.15.67.12,13.34-1.85,26.83-2.48,40.28-1.94.2,0,.36-.03.51-.1.07,0,.13.03.21.02,16.85-1.83,33.75-3.03,50.69-3.63.18.21.45.33.82.29,15.08-1.68,30.13-3.65,45.13-5.91.17.11.37.19.63.18,17.08-1.12,34.15-2.25,51.23-3.37.11,0,.19-.05.28-.08,17.21.69,35.64.95,50.45-9.16.07-.05.1-.11.16-.16,6.95-4.05,15.33-1.63,22.64.47,8.32,2.39,16.78,3.79,25.44,4.02.12,0,.21-.03.31-.05.17.12.37.21.64.21,4.12-.08,8.22-.71,12.16-1.93,3.11-.96,6.72-2.17,8.77-4.88,2.17-2.87,1.41-6.66-.59-9.39-2.08-2.84-5.17-4.75-8.44-5.94-.66-.24-1.32-.44-1.99-.62,8.47-.39,16.97.02,25.38,1.29.06,0,.11,0,.17,0,.13.14.29.26.53.32,7.98,1.97,16.4,3.96,24.61,2.11,3.08-.7,6.46-2.23,5.95-5.98-.17-1.25-.71-2.39-1.45-3.43,3.17.99,6.36,1.93,9.58,2.77,4.8,1.24,9.67,2.46,14.63,2.81,2.32.16,4.65.09,6.95-.29,1.61-.27,3.68-.56,4.38-2.28,1-2.45-1.06-5.46-3.13-7.72,2.18-.23,4.42-.49,6.44-1.12,1.98-.62,2.83-2.42,2.67-4.4-.38-4.7-4.53-8.62-7.92-11.43-6.98-5.79-14.45-11.39-22.74-15.21,2.18-.1,4.37-.21,6.55-.35,2.21-.14,4.71-.4,6.22-2.22,3.76-4.53-2.68-10.14-5.84-12.71-9.43-7.66-21.34-11.18-32.8-14.55-5.52-1.63-11.06-3.17-16.7-4.26.83-1.23.82-2.84.75-4.36-.1-2.12-.77-3.86-2.2-5.43-1.13-1.24-2.44-2.33-3.76-3.39-.06-.11-.12-.23-.23-.33-9.6-9.2-24.33-8.26-36.6-7.58-7.49.41-15.13.65-22.5,2.17-7.4,1.53-14.43,4.38-21.28,7.51-.23.11-.36.26-.46.43-.3-.17-.67-.23-1.06-.03-22.82,11.5-33.59,35.94-42.65,58.41-.08.19-.09.36-.07.52-10.94,13.66-21.47,29.42-38.39,36.05-.32-.34-.82-.52-1.35-.27-12.38,5.81-26.28,5.4-39.64,5.35-13.54-.06-26.9,1.19-40.08,4.37-.14-.06-.31-.09-.5-.07-12.91,1.27-25.75,3.08-38.5,5.45-.09.02-.14.06-.21.09-.07,0-.12-.03-.2-.03-13.86.9-27.67,2.32-41.43,4.22,2.32-4.34,3.61-9.12,5.44-13.69,2.11-5.28,5.41-9.89,8.75-14.45.33.09.7.05,1.03-.21,17.42-14.07,41.66-4.63,61.79-4.83.37,0,.73.04,1.1.04.18.2.45.33.8.32,15.36-.39,30.44-3.74,44.54-9.83.6-.26.68-.79.48-1.25,18.45-11.22,36.05-23.8,52.64-37.64.25,0,.51-.07.75-.28,17.53-15.4,30.6-35.48,37.63-57.72.04-.12.03-.23.04-.33.08-.14.13-.3.15-.49.41-6.07,3.54-12.38.93-18.36-1.95-4.46-7.08-6.72-11.37-4.04-2.54,1.59-4.67,3.85-7.11,5.59-2.61,1.86-5.4,3.53-8.4,4.67-2.93,1.12-6.2,1.88-9.35,1.61-3.41-.3-7.37-2.71-6.39-6.68.1-.42-.03-.75-.26-.99.1-4.52-2.77-8.65-5.95-11.71-3.97-3.82-9.05-1.09-12.84,1.57-4.67,3.27-8.62,7.5-13.5,10.48-2.3,1.41-5.85,3.11-8.27,1.03-2.64-2.26-1.59-6.3-.86-9.17.07-.28.02-.52-.07-.73,0,0,0-.01.01-.02,1.29-5.73-1.33-11.68-6.81-14.1-5.63-2.48-11.85-.02-16.66,3.18-11.32,7.54-17.07,21.63-29.21,28.02-1.98,1.04-4.4,1.75-6.3.19-1.34-1.11-2.02-2.86-2.37-4.52-.91-4.32.08-9.06,1.93-12.99.15-.31.14-.61.05-.87,0-.06.04-.11.04-.18-.07-7.12-7.25-10.49-13.54-9.75-6.63.78-12.5,4.63-17.51,8.81-5.51,4.6-10.34,10.02-16.19,14.21-3.13,2.24-6.91,4.4-10.9,4.25-5.68-.21-5.84-6.01-5.28-10.37.09-.11.16-.24.21-.4,1.62-5.6-.27-13.25-6.09-15.73-3.14-1.34-6.8-.37-9.92.55-3.45,1.02-6.79,2.5-9.87,4.36-6.08,3.69-10.61,9.02-15.39,14.17-2.96,3.18-14.53,15.38-18.92,9.01,1.29-5.87,6.02-11.44,4.3-17.73-1.45-5.29-7.19-7.7-12.27-7.24-6.71.61-12.86,4.58-18.48,8-2.82,1.71-5.62,3.55-7.98,5.88-2.19,2.16-3.96,4.71-5.66,7.26-4.29,6.44-8.53,12.93-11.39,20.15-.11.29-.09.53,0,.74,0,.02-.02.04-.03.06-2.67,11.91-1.68,24.42,2.92,35.73.14.35.41.56.7.66,2.15,4.28,6.18,7.25,10.48,9.35,5.99,2.92,12.3,5.28,18.44,7.87.26.11.48.09.68.02,6.95,4.31,14.17,8.83,18.8,15.76.03.05.07.07.1.1,0,.18.02.37.14.57,5.93,10.45,5.16,22.69,4.09,34.25-.05.12-.09.24-.09.38-.11,3.47-.42,6.94-.95,10.37-.02.14-.02.29,0,.42-.11.16-.2.34-.22.58-.47,6.65-3.05,12.85-6.27,18.62-3.32,5.95-7.23,11.57-11.56,16.83-.1.13-.17.26-.21.39-.12.05-.24.11-.35.21-10.46,9.23-22.67,16.31-35.87,20.84-.21-.1-.46-.14-.76-.03-26.61,9.74-54.07,25.26-64.8,52.85-4.5-15.92-20.03-25.3-35.93-26.95-.16-.34-.46-.62-.91-.68-11.51-1.54-21.95-8.49-28.02-18.33-7.16-17.65-14.89-36.09-30.33-48.15-.08-.07-.17-.09-.26-.13-.37-.52-1.09-.76-1.62-.14-11.27,13.18-11.94,33.09-.07,45.76-5.91-1.94-11.77-4.73-17.94-2.1-.33.14-.5.37-.56.62-.21.13-.37.34-.43.67-1.64,10.13,1.19,19.28,6.63,27.79,5.17,8.09,12.28,17,10.62,27.14-3.97-4.65-8-9.27-12.53-13.4-4.09-3.73-9.25-7.57-15.07-7.44-1.72.04-4.44.28-5.26,2.08-.57,1.25-.24,3.01-.22,4.34.02,1.74.05,3.49.07,5.23.09,6.36.33,12.56,3.07,18.41,2.92,6.23,7.77,11.34,12.77,15.96.38.35.82.36,1.18.21.13.1.26.19.39.29,4.61,3.97,9.3,7.93,14.49,11.12.67.49,1.36.96,2.08,1.36,1.05.59,2.14,1.07,3.25,1.48,5.73,2.62,11.88,4.06,18.12,5.1,14.5,2.42,29.76,4.16,41.76,13.5.16.12.32.19.49.22,2.08,3.75,4.96,6.89,7.63,10.22,2.55,3.19,4.3,6.85,6.51,10.24-.07.32,0,.66.28.96.6.63,1.21,1.25,1.81,1.88,1.54,1.9,3.24,3.64,5.06,5.26,7.57,7.86,15.14,15.72,22.78,23.51,4.71,4.81,9.28,9.95,14.39,14.34,4.76,4.1,10.38,5.5,16.44,6.56.05,0,.09,0,.14,0,.18.24.45.42.83.45,30.91,2.27,63.76,13.69,93.63.26.2.08.42.12.68.06,16.41-4.19,32.84-8.39,48.92-13.73,15.91-5.29,31.3-11.84,45.97-19.98,6.79-3.76,13.42-7.79,19.97-11.96-1.14,1.83-2.24,3.69-3.25,5.6-1.59,2.98-3.11,6.21-3.03,9.67.15,6.48,5.64,9.75,11.66,9.2,14.8-1.36,24.2-16.08,30.77-27.72,4.68-8.31,9.52-16.46,15.05-24.24.26-.36.23-.71.08-1,8.08-10.43,17.17-20.72,27.87-28.5,5.04-3.66,10.55-6.73,16.53-8.56,6.27-1.92,12.81-2.36,19.32-2.19-6.95,4.84-13.69,10.47-16.49,18.74-1.36,4.03-1.72,8.8.22,12.7,1.74,3.5,5.49,5.67,9.38,4.87.18-.04.33-.11.45-.2,0,0,0,0,0,0,12.01-4.49,21.09-13.68,31.32-21.05,5.21-3.75,10.82-7.06,17.07-8.72,6.48-1.71,13.22-1.64,19.89-1.18-.79,1.41-1.47,2.89-2.02,4.44-3.88,10.88,1.22,24.81,13.48,27.01,6.2,1.12,13.01.24,19.37-1.16-4.05,3.79-7.5,8.19-10.17,13.07-3.19,5.83-6.3,13.3-5.58,20.09,1.61,15.12,22.9,11.89,32.83,9.17,6.99-1.92,13.63-4.91,19.94-8.47-3.02,4.87-4.75,10.38-5.43,16.13-.79,6.7-.54,14.39,3.82,19.92,8.54,10.84,24.45,8.2,33.04-.98,2.58-2.76,4.5-5.95,5.93-9.37-1.91,17.76-7.71,34.76-18.34,49.35-11.57,15.9-27.39,28.17-44.27,38-9.24,5.39-18.87,10.09-28.59,14.54,6.4-9.02,9.23-20.34,7.56-31.35-2.02-13.35-11.27-24.45-12.56-37.97-.02-.25-.13-.44-.26-.6.05-.11.1-.23.11-.37.62-6.74,2.8-13.26,3.13-20.04.26-5.24-.52-12.16-4.87-15.75-3.54-2.91-8.77-2.06-12.19.59-3.6,2.79-5.06,7.27-5.73,11.65-4.9-6.76-10.21-13.45-17.28-17.99-8.56-5.5-19-6.41-28.35-2.38-.23-.72-1.16-1.23-1.84-.52-10.36,10.89-24.98,17.33-40.01,17.71-8.24.21-15.77-2.28-23.81-3.53-6.64-1.03-14.28-.58-19.32,4.44-2.1,2.09-4.85,6.27-4.23,9.43.35,1.77,2.22,1.81,3.66,2.03.36.06.72.11,1.08.17-5.6,1.69-11.23,3.27-16.96,4.46-8.22,1.7-16.52,2.3-24.9,2.14-15.56-.3-31.11-2.72-46.67-1.34-12.82,1.14-25.87,4.75-35.77,13.33-4.45,3.86-8.1,9.81-3.81,15.19,4.02,5.04,11.11,6.5,17.22,6.73,14.44.55,28.66-2.95,43.02-4.28.26.02.52.03.78.05-12.02,3.49-24.06,6.96-35.94,10.88-12.61,4.16-25.74,8.85-35.92,17.69-4.2,3.65-9.55,9-10.21,14.83-.69,6.08,4.93,8.39,10.06,8.46,13.11.18,25.08-6.4,36.59-11.82,7.05-3.32,14.26-6.36,21.99-7.69,8.21-1.41,16.59-1.08,24.87-.42-3.42,2.79-4.08,8.31-4.14,12.63-.08,5.64,3.87,8.74,9.28,9.13,6.38.46,12.66-2.7,17.88-6.03,6.1-3.88,11.78-8.3,18.11-11.82,7.44-4.14,15.37-7.29,23.71-9.07.48-.1.72-.43.78-.79.13.05.27.08.44.08,17.57-.51,35.68-4.17,52.9.99,7.59,2.27,14.69,6.34,19.63,12.64,4.79,6.11,7.42,13.97,5.93,21.71-.07.37.03.68.21.92-5.63,6.89-12.1,13.08-19.34,18.26-7.49,5.36-15.87,10.02-25.3,10.16-9.47.15-18.48-3.42-27.63-5.34-8-1.68-16.19-1.86-24.24-.45-6.05,1.06-11.9,3.02-17.37,5.76-.16-.05-.34-.06-.54-.02-21.92,4.39-44.92,8.82-67.11,5.3-.57-.09-1.14-.18-1.7-.28-5.02-.89-10-2.19-14.91-4.01-.41-.15-.74-.05-.97.17-.17-.13-.37-.23-.65-.24-19.69-.29-39.02-7.05-54.55-19.18-.2-.15-.41-.21-.61-.23-.05-.17-.13-.33-.28-.48-7.13-6.95-14.02-14.13-20.67-21.54-.25-.28-.54-.37-.81-.35-6.74-12.76-14.17-25.15-22.3-37.08-3.63-5.33-7.2-10.96-11.58-15.72-3.3-3.59-8.54-7.42-13.74-6-2.72.74-4.36,3.09-4.73,5.79-.14.99-.08,1.95.09,2.89-6.6-7.07-13.95-13.49-22.64-17.78-2.67-1.32-5.45-2.42-8.3-3.27-3.62-1.07-7.42-1.72-10.84-3.38-5.89-2.86-9.66-8.48-12.52-14.17-3.42-6.81-5.89-14.04-10.65-20.1-.38-.49-.88-.46-1.27-.19-.21-.24-.51-.39-.86-.43-1.94-.23-3.93-.09-5.82.41-1.72.46-3.75,1.16-4.59,2.87-.79,1.59-.62,3.49-.43,5.19.05.44.15.88.22,1.32-6.35-9.76-10.92-20.71-19.15-29.15-.36-.37-.78-.39-1.14-.25.17-.36.14-.8-.27-1.15-13.26-11.33-27.27-22.64-44.25-27.74-6.29-1.89-14.81-4.11-21.11-1.09-2.41,1.15-4.24,3.29-4.58,5.99-.46,3.58,1.67,6.86,4.03,9.36,5.13,5.44,11.98,9.64,18.86,12.9-3.14.88-5.63,3.74-5.69,7.5-.11,6.74,5.58,11.91,10.71,15.34,1.47.98,2.96,1.9,4.47,2.8.17.11.33.23.5.33,1.57,1,3.2,1.89,4.84,2.77,3.37,1.96,6.71,3.98,9.82,6.41,5,3.91,9.48,8.43,13.44,13.39-2.06-.61-4.19-.55-6.08.95-3.34,2.64-2.89,8.54-2.09,12.23,2.05,9.45,9.61,16.1,17.38,21.13.16.1.32.16.47.17.01.01.02.02.03.03,17.38,11.42,30,29.25,35.17,49.35-2.9-1.41-6.36-1.73-9.33-.39-1.9.86-3.03,2.59-3.17,4.65-.13,2.02.64,3.99,1.42,5.81.05.12.14.2.23.28,0,.03,0,.05.01.08,6.32,17.43,13.19,35.79,24.58,50.53.06.09.11.18.17.27.22.35.51.66.84.95,4.92,6.13,10.64,11.62,17.52,16.06,5.28,3.41,11.07,5.99,17.16,7.5-1.14.99-2.25,2-3.31,3.08-4.77,4.87-7.87,10.73-10.59,16.91-5.18,11.78-10.39,23.69-13.37,36.24-1.19-4.08-3.29-7.86-6.18-11.04-2.23-2.46-4.94-4.54-7.91-6.02-3.27-1.62-6.83-2.31-10.32-3.32-16.7-4.84-23.32-22.16-28.51-37.03-.06-.17-.14-.31-.25-.42-1.64-5.88-1.76-11.99-2-18.08-.27-6.78-.78-13.54-1.53-20.28-.35-3.11-.75-6.22-1.19-9.31-.45-3.11-.73-6.41-1.68-9.42-1.23-3.91-5.12-7.54-9.32-5.26.96-17.11-1.17-34.27-6.34-50.61-.03-.09-.08-.15-.12-.22-1.35-8.58-3.92-16.92-7.66-24.75-1.46-3.05-3.37-6.68-7.15-7.07-1.75-.18-3.49.73-4.39,2.11-3.58-10.94-10.15-20.64-17.59-29.38-2.82-3.31-7.86-10.79-13.12-7.51-3.34,2.08-2.04,6.4-.02,10.1-3.39-2.12-7.05-3.8-10.9-4.99-3.17-.98-6.46-1.59-9.77-1.87-2.35-.19-5.82-.8-7.46,1.38-1.59,2.12-.77,4.82.68,6.75,2.03,2.68,4.61,5.02,6.89,7.49,5.11,5.54,10.1,11.2,14.67,17.19,4.32,5.66,8.19,11.64,11.48,17.95-5.43-3.78-11.07-7.31-17.32-9.53-3.57-1.27-7.34-2.06-11.15-2.1-3.01-.03-6.97.06-8.73,2.97-1.7,2.81-1.67,7.01-1.52,10.18.17,3.72.98,7.42,2.37,10.88,2.73,6.77,7.65,11.9,13.36,16.29,6.68,5.12,14.1,9.34,19.65,15.78.16.19.35.28.54.32,8.52,11.88,14.15,25.53,16.56,39.93-2.7-1.62-6.02-2.12-8.72.04-3.72,2.96-2.47,9.24-1.79,13.28,1.79,10.67,7.17,20.31,12.54,29.57-.42.3-.68.86-.37,1.45,4.56,8.73,9.13,17.48,13.08,26.51,1.99,4.54,3.82,9.16,5.4,13.86,1.49,4.44,2.64,9,4.18,13.43,2.66,7.7,6.92,14.06,13.46,18.97,6.46,4.86,14.01,7.98,21.52,10.83,9.39,3.57,19.09,6.96,26.92,13.47.37.31.79.32,1.15.18.09.13.21.26.38.36,11.42,6.56,20.89,16.11,27.42,27.53-.55.26-.9.85-.44,1.47,9.73,13.1,20.77,25.25,33.05,36.02,5.9,5.17,12.16,9.29,19.58,11.91,7.99,2.83,16.39,4.7,24.76,6.01,9.51,1.49,19.13,2.13,28.75,1.92.26,0,.46-.1.63-.23.12.05.26.09.42.1,18.94.7,37.57-3.91,55.13-10.7,17.53-6.78,34.58-15.26,51.22-23.98,8.29-4.34,16.32-9.14,23.8-14.76.04,5.62,1.31,11.66,7.13,13.81,1.73.64,3.59.57,5.39.34,1.7-.22,3.35-.59,4.53-1.93,2.55-2.88,1.58-6.92,1.65-10.4.05-2.65.51-5.27,1.26-7.8.41,1.87,1.19,3.68,2.22,5.35,1.83,2.97,4.44,6.31,7.59,7.96,1.83.96,3.92,1.3,5.95,1.59,2.06.3,4.11.44,6.17.09,1.76-.3,3.1-1.12,3.18-3.03.09-2.15-.07-4.34-.1-6.49-.04-2.31-.08-4.62-.12-6.93.62,1.47,1.57,2.79,2.74,3.88,3.26,3.03,7.66,4.01,11.95,4.55,2.51.32,5.03.57,7.55.85,2.68.3,5.5.88,8.19.87,1.62,0,3.26-.66,3.7-2.37.54-2.09-.95-3.78-2.4-5.04-.07-.06-.14-.08-.22-.13.2-.38.2-.86-.17-1.27-5.14-5.59-5.18-14.17-1.77-20.67,3.49-6.66,9.86-11.3,16.47-14.57,8.36-4.14,17.3-5.22,26.51-5.61,8.74-.37,17.51-.13,26.21.71,10.18.98,20.26,2.83,30.16,5.44.26.07.48.03.67-.05.11.27.33.49.73.57,19.97,3.73,30.67,22.74,43.39,36.79-17.91-6.34-35.73-14.11-54.97-14.98-16.4-.74-34.07,4.4-44.34,17.96-4.26,5.63-6.97,13.44-4.67,20.25-13.88-7.35-29.66-11.5-45.39-11.28-7.5.1-15.43,1.73-20.94,7.19-3.62,3.59-5.89,9.21-4.08,13.97-14.01-3.15-28.95-5.7-42.58.2-5.33,2.3-12.09,6.53-13.95,12.4-1.52,4.83,1.87,7.8,5.74,9.61-6.3,1.52-11.43,7.02-13.67,12.98-1.34,3.56-1.32,7.87,1.86,10.45,2.94,2.38,7.05,2.53,10.66,2.45,4.54-.09,9.05-.81,13.42-2.05-1.53,4.19-.13,9.46,2,13.2,3.01,5.28,11.54,5.19,16.74,4.43,11.83-1.73,20.37-10.63,27.71-19.47.96,5.04,5.17,8.97,10.09,10.51,6.42,2.01,13.78.65,20-1.48,9.49-3.26,17.85-9.39,23.84-17.37-.76,2.96-.91,6.01.35,8.83,2.28,5.07,8.13,6.47,13.23,6.18,12.92-.75,24.3-8.67,32.68-18.04,3.72-4.17,7-8.69,10.11-13.33-.2,1.64-.21,3.3.03,4.96.36,2.51.99,5.83,3.75,6.68,3.31,1.02,7.46.65,10.84.23,3.82-.47,7.55-1.45,11.17-2.74,7.26-2.59,14.04-6.33,20.73-10.13,6.8-3.87,13.52-7.91,19.97-12.34,7.17-4.92,14.02-10.32,20.27-16.37.36-.35.39-.77.25-1.13,1.24-.96,2.47-1.92,3.71-2.88,1.09-.85,2.19-1.69,3.28-2.55.99-.79,1.91-1.65,2.58-2.75.06-.1.08-.19.1-.29.29-.31.39-.76.06-1.22-6.98-9.79-.76-21.67,5.2-30.19,6.12-8.75,13.78-16.38,22.46-22.6.18,0,.36-.05.54-.19,7.97-5.75,16.59-10.46,25.17-15.2,8.2-4.53,16.71-9.01,23.95-15.02,6.61-5.5,12.19-13.4,11.83-22.37-.3-7.41-5.11-14.26-11.91-17.19-5.19-2.23-11.1-1.84-16.06.56,8.33-11.91,21.3-19.39,32.86-27.82,6.06-4.42,11.98-9.19,16.76-15.01,4.7-5.71,8.52-13.58,4.95-20.87-3.27-6.67-10.8-7.55-17.56-7.02,10.93-11.45,22.18-22.7,32.68-34.55,4.72-5.33,8.33-11.37,10.07-18.32,1.5-5.97,2.36-13.84-.28-19.63-2.87-6.3-9.63-6.45-15.51-5.02,2.88-5.57,5.05-11.5,6.34-17.64,1.33-6.3,2.57-14.04-2.02-19.37-4.26-4.95-10.95-3.77-15.5.11-3.24,2.76-5.41,6.58-6.45,10.69-1.46-2.72-4-4.86-7.02-5.8-5.08-1.59-10.73.36-14.53,3.87-8.47,7.83-8.04,20.7-7.01,31.7-2.85-3.73-6.13-7.18-10.7-8.68-5.38-1.76-10.53.03-13.79,4.59-3.64,5.09-5.95,11.55-7.97,17.42-2.26,6.59-3.88,13.39-4.85,20.28-.68,4.84-1,9.7-1.03,14.57-1.45-1.89-3.33-3.47-5.51-4.56-5.14-2.56-10.95-2.11-16.01.44-12.1,6.1-16.92,21.06-16.74,33.78.06,4.08.64,8.12,1.68,12.04-1.86-1.93-4.2-3.29-7.23-3.49-6.56-.42-11.9,4.47-14.56,10.04-3.22,6.73-4.34,14.66-4.73,22.04-.24,4.59-.05,9.18.51,13.72-1.68-2.98-4-5.49-7.42-6.76-6.57-2.44-12.71,2.27-15.78,7.79-7.45,13.41-7.56,30.61-5.84,45.41.78,6.72,2,13.37,3.39,19.99-8.35-14.93-11.62-32.11-12.53-49.12-.26-4.8-.34-9.6-.29-14.41.04-4.69.36-9.41-.26-14.07-1.03-7.77-5.76-16.13-14.48-16.5-8.74-.37-14.65,6.49-17.78,13.89-4.76-9.81-13.38-17.63-24.39-19.55-9.92-1.73-24.16,2.07-25.94,13.72-.52,3.37.27,6.91,2.22,9.62-10.28-4.22-21.9-4.79-32.58-1.59-9.94,2.99-25.72,11.8-21.71,24.62,1,3.18,3.42,5.53,6.34,6.67-2.79,1.32-5.38,3.12-7.84,5.03-3.93,3.05-7.51,6.94-8.02,12.11-.48,4.74,2.26,9.46,7.14,10.4,2.72.52,5.59-.1,8.26-.62,2.77-.54,5.5-1.28,8.06-2.45,3.09-1.42,5.69-3.69,8.43-5.7,1.05-.4,2.1-.8,3.14-1.22-.56,1.99-.75,4.07-.5,6.17.33,2.8,1.31,6.06,4.1,7.3,3.19,1.41,7.19.15,10.33-.77,3.88-1.14,7.59-2.77,11.1-4.76,3.76-2.13,7.38-4.51,11.54-5.82,4.02-1.27,8.26-1.68,12.46-1.42,8.36.51,16.25,3.79,23.23,8.29,7,4.51,13.94,10.24,18.98,17.01-10.02-2.4-20.08-4.72-30.32-5.96-11.34-1.37-22.53-.85-33.82.67-10.59,1.43-20.89,3.15-30.56,7.91-9.46,4.66-18.3,10.95-28.77,13.2-5.51,1.19-13.81,1.92-17.54-3.29-3.43-4.79-4.7-11.64-5.06-17.39-.06-.92-1.21-1.54-1.92-.79-5.62,5.98-7.75,14.54-5.59,22.43-3.91-.35-7.94-1.12-11.41-2.87-1.65-.83-3.24-1.93-4.32-3.46-1.35-1.92-1.45-4.17-1.65-6.42-.14-1.54-.03-3.96-1.41-5-1.32-1-3.19-.25-3.97,1.06-.99,1.66-.94,4.12-1.08,5.98-.17,2.38-.18,4.78-.04,7.17.3,4.93,1.3,9.78,2.88,14.45-3.7-.7-7.49-1.03-11.02-2.36-2.44-.92-4.62-2.46-6-4.7-.68-1.1-1.15-2.29-1.41-3.56-.22-1.08-.15-2.21-.4-3.28-.4-1.67-1.69-2.84-3.46-2.26-1.96.64-3.4,2.49-4.19,4.31-1.02,2.35-1.04,4.95-.92,7.47.14,2.82.3,5.64.72,8.43.75,4.96,2.65,9.8,6.47,13.08-21.5,12.03-51.03,25.55-73.84,9.74-6.36-4.41-10.6-11.02-14.7-17.44-.17-.26-.39-.39-.62-.46-2.9-6.01-5.48-12.22-6.82-18.77-1.45-7.07-.93-13.99.73-20.97,2.9-12.15,6.49-25.21,14.99-34.73.42-.48.34-1.04.04-1.44.04-.04.09-.06.13-.11,1.63-2.19,3.37-4.33,4.89-6.59,1.29-1.92,2.31-4.32,1.32-6.59-1.92-4.44-7.98-3.77-11.52-2.09-2.04.97-3.86,2.35-5.6,3.79,1.8-5.6,7.78-8.99,12.12-12.52,2.38-1.93,4.67-4.13,6.12-6.87.79-1.49,2.37-4.58.6-5.93-.79-.6-2.09-.58-3.03-.67-1.84-.16-3.69-.16-5.54-.03-3.3.24-6.57.91-9.7,1.97-6.35,2.16-12.09,5.85-16.78,10.63-3.19,3.25-5.87,6.94-8.06,10.9.4-1.12.8-2.24,1.2-3.36.99-2.77,3-6.27,2.18-9.3-1.26-4.64-7.31-5.29-11.21-4.39-13.04,3.03-18.06,17.1-20.27,28.74-.91,4.8-1.61,9.68-1.62,14.54-1.41-3.15-3.18-6.12-5.43-8.78-3.9-4.6-10.8-9.3-16.62-4.99-2.72,2.02-2.93,4.86-2.71,8.01.27,3.96.56,7.92.93,11.88.71,7.74,1.7,15.49,3.47,23.06,2.01,8.58,5.09,16.9,9.71,24.43.21.34.51.49.82.51-.08.33-.04.68.21,1.01,8.48,10.9,17.76,21.15,27.8,30.62,4.74,4.47,9.66,9.59,15.65,12.36,2.27,1.05,4.67,1.74,7.13,2.24,2.4.6,4.86.96,7.36,1.07,1.53.17,3.06.33,4.56.51,7.74.94,15.48,1.88,23.22,2.82-6.64,3.79-13.41,7.48-20.78,9.62-8.2,2.39-16.89,2.38-25.36,2.02-15.83-.68-31.8-3.92-45.4-12.39-.23-.14-.44-.17-.65-.15-13.55-6.45-25.74-15.4-35.94-26.4.02-.27-.05-.55-.27-.81-7.37-8.71-14.82-17.69-18.29-28.76-3.32-10.58-3.27-22.01-.8-32.76,2.46-10.74,7.37-20.77,13.47-29.89,6.03-9.03,13.19-17.61,21.29-24.86,1.22-1.09,2.55-2.09,3.82-3.12,8.8-.77,17.47-2.93,25.75-6.42,14.56-6.13,27.55-15.26,41.55-22.46,8.01-4.12,16.36-7.51,25.23-9.24.04,0,.07-.03.11-.04.15.36.47.65.96.68,24.75,1.34,49.2,6.06,72.7,13.89-1.14,1-2.3,1.98-3.42,3-.25.23-.34.48-.34.73-9.79,8.96-19.6,18.26-26.48,29.72-1.7,2.84-3.19,5.79-4.44,8.85-1.07,2.61-2.99,6.38-1.88,9.21,1.52,3.92,6.43,3.82,10.58,2.81-9.96,9.6-19.65,20.59-21.9,34.55-.58,3.58-.64,7.54,1.43,10.68,1.75,2.65,4.66,4.23,7.85,3.74,3.71-.56,7.52-2.59,10.79-4.36,3.59-1.94,6.97-4.24,10.2-6.74,6.27-4.87,11.88-10.5,17.35-16.24-.86,3.64-.48,7.31,3.12,9.79,5.16,3.56,11.5,1.3,16.36-1.6,10.71-6.41,19.33-16.08,24.67-27.34.17-.36.13-.7,0-.99,9.83-28.2,31.57-51.75,58.71-64.16,8.13-3.71,17.09-6.93,26.11-7.31.15.34.46.59.97.55,17.13-1.57,33-9.29,48.7-15.77,16.71-6.9,33.42-13.79,50.13-20.69.42-.17.63-.51.7-.88,1.37-.62,2.75-1.24,4.11-1.89,22.43-9.39,43.32-22.15,61.85-37.93.28-.24.38-.52.36-.8.18-.08.35-.2.49-.41,12.65-19.59,23.01-40.58,30.91-62.52,1.45.66,2.96,1.22,4.53,1.66,6.02,1.7,12.87,1.69,18.62-.97,5.39-2.5,8.77-7.54,9.96-13.26,1.32-6.33,0-12.66-1.79-18.77,8.57,7.44,19.84,11.47,31.21,11.45,10.42-.02,29.77-3.9,27.51-17.93-1.03-6.44-4.98-12.05-9.27-16.99,12.95,2.43,27.15-4.89,29.09-18.85,2.06-14.85-10.55-25.12-22.85-30.47ZM338.85,323.08c-.13-.06-.26-.12-.39-.18-.02,0-.03-.02-.05-.02.4.17.79.31,1.19.44-.21-.07-.42-.1-.63-.18-.04-.01-.09-.04-.13-.06ZM492.46,283.23c.12.03.19.06.17.1-.02.04-.09-.01-.1,0-.03-.03-.04-.07-.07-.11ZM617.58,359.54c.17.26.34.51.52.76-.49.1-.98.2-1.47.31.32-.36.64-.71.95-1.07ZM703.06,300.28c-1.86.5-4.76.83-6.14-.81-1.4-1.66-2.5-3.98-3.27-6.01-1.56-4.14-1.48-9.8,3.03-12.06.76-.38.67-1.19.22-1.68,1.85-1.11,3.89-1.62,6.01-.67,1.86.83,2.96,2.69,3.87,4.42,1.08,2.08,2.18,4.26,2.71,6.56,1.07,4.67-1.88,9.03-6.42,10.25ZM695.24,397.22c0-.15-.01-.3-.02-.46.19.11.4.22.59.33-.17.07-.34.14-.5.23-.03-.03-.05-.07-.08-.1ZM672.08,188.22c0-.2.02-.39.07-.47,0,.16-.04.31-.07.47ZM578.3,240.07c-.23-.03-.46-.06-.68-.09.24-.06.49-.12.73-.17-.02.09-.04.17-.05.26ZM493.52,293.05s.05-.04.07-.06c.01,0,.03.01.04.02,0,0,.02,0,.02,0-.05.02-.1.03-.15.05,0,0,0,0,.01,0ZM421.33,354.7s.04.06.07.15c-.1-.07-.14-.13-.07-.15ZM407.55,364.59s0,0,0,0c0,0,0,0,0,0,0,0,0,0,0,0ZM269.15,365.23l-.15.09c-.32-.09-.26-.12.15-.09ZM308.75,187.35c0,.07,0,.13,0,.2-.05,0-.1.02-.15.03.05-.08.1-.15.15-.23ZM275.11,154.83c-.02.09-.04.19-.06.28.01-.12.02-.25.03-.37,0,.03.02.06.03.09ZM497.49,175.91c.31.07.62.13.95.16-.36.03-.73.08-1.09.12.05-.09.1-.19.15-.28ZM558.79,128.98s.09.06.14.09c-.08.13-.17.26-.2.41.03-.16.04-.33.06-.5ZM640.26,79.9c-.04-.07-.08-.13-.12-.19.11.05.21.1.32.16-.06.01-.13.03-.19.04ZM523.14,49.67c.12-.08.24-.17.37-.25-.12.12-.24.24-.34.38,0-.05-.02-.09-.03-.14ZM332.34,281.64c-.03.06-.05.12-.08.18.02-.07.04-.13.06-.2,0,0,.01.01.02.02ZM412.76,249.3s-.01-.05-.02-.07c.02.02.03.04.05.06,0,0-.02,0-.03,0ZM404.53,244.02s-.01.04-.02.06c-.19-.07-.39-.15-.58-.22,0,0,0,0-.01,0-.02-.08-.05-.14-.07-.21.23.12.45.25.68.37ZM345.74,305.48s.05.05.08.07c-.03-.02-.05-.05-.08-.07ZM371.77,278.78s-.03-.07-.04-.11c.03,0,.06.03.08.04-.01.02-.03.05-.04.07ZM378.68,286.9s.04,0,.06.01c0,.18-.02.35-.06.51,0-.17,0-.35,0-.52ZM380.77,285.07s0-.08,0-.12c.02-.09.03-.19.05-.28.06.33.1.67.08,1.01-.03-.2-.08-.4-.13-.6ZM358.3,268.26s.04-.07.06-.11c.28.18.56.37.84.55-.3-.15-.6-.3-.9-.45ZM362.6,272.87c-.2-.1-.4-.19-.59-.29.2.1.4.2.59.29ZM400.97,272.7s.03.03.05.04c-.07.04-.15.08-.22.11.06-.05.11-.1.17-.16ZM409.97,253.69c.08.12.17.23.27.32-.06.1-.09.21-.12.33-.23-.11-.45-.23-.67-.35.2-.05.38-.15.53-.3ZM412.56,254.98s.1,0,.15.01c.04.05.09.11.14.16-.12,0-.24-.03-.36-.05.02-.04.06-.08.07-.12ZM399.42,238.39s-.04-.03-.06-.04c.02,0,.05.01.07.02,0,0,0,.02,0,.02ZM420.29,235.52c.04-.1.04-.21.07-.32.04-.04.06-.09.09-.13-.02.27-.09.52-.28.72.04-.09.09-.18.12-.27ZM331.77,307.31c.21-.24.33-.57.22-.97-.53-2.07-.06-4.11.51-6.11,1.91,1.77,3.74,3.62,5.53,5.51-.02.23,0,.48.11.7.65,1.4,1.42,2.75,2.3,4.02.8,1.15,1.65,2.33,2.76,3.2,1.21.95,2.9,1.62,4.4.91,1.34-.64,1.9-2.19,2.07-3.57.19-1.48-.08-3-.63-4.38-.56-1.42-1.37-2.79-2.77-3.53-1.25-.67-2.8-.96-4.2-1.04-.38-.02-.79,0-1.21.06-2.42-2.06-4.77-4.2-7.02-6.45.52-1.69,1.06-3.38,1.67-5.05.68-1.87,1.47-3.68,2.31-5.47.55.45,1.1.91,1.65,1.34,1.27.98,2.58,1.91,3.92,2.78,2.3,1.49,4.7,2.8,7.18,3.95.04,1.38.29,2.73.98,3.96.56.99,1.36,1.82,2.13,2.65.78.84,1.6,1.63,2.53,2.31.48.35,1,.64,1.54.87.13.27.36.48.67.54.56.1,1.16.17,1.77.2.07.04.14.08.18.09.07.03.14.04.21.07,1.1.58,2.31.92,3.59.8,2.28-.21,4.02-1.82,4.45-4.07.45-2.34-.36-4.76-1.25-6.91-.41-1.01-.93-1.99-1.71-2.77-.84-.83-1.91-1.32-3-1.73-2.41-.92-4.93-1.49-7.49-1.78-1.05-.12-2.25-.3-3.21.27-.09.05-.14.13-.22.19-1.92-1.25-3.92-2.37-5.95-3.44-1.56-.82-3.12-1.63-4.68-2.45-.44-.23-.88-.48-1.33-.73.9-1.62,1.85-3.22,2.9-4.76,2.07-3.06,4.35-5.99,6.77-8.82,4.75,3.3,9.79,6.14,15.06,8.52.94,2.63,2.11,5.19,3.55,7.58,1.52,2.52,3.28,5.13,5.65,6.92,2.18,1.64,5.15,2.49,7.76,1.39,2.35-.99,3.91-3.34,4.23-5.83.79-6.04-4.59-10.74-9.34-13.4-2.35-1.31-5.78-2.71-8.47-1.67-.18.07-.33.17-.49.26-.49-.38-1.03-.71-1.49-1.02-1.81-1.22-3.63-2.43-5.46-3.62-1.78-1.15-3.56-2.29-5.36-3.41-.38-.24-.77-.48-1.15-.72,2.75-2.93,5.59-5.77,8.45-8.53,1.58-1.53,3.2-3.03,4.83-4.5,4.29,3.09,8.68,6.05,13.2,8.79,0,2.74,1.21,5.62,2.78,8.07.29.51.63.99.99,1.44.47.63.95,1.22,1.43,1.75,3.8,4.21,11.02,8.16,16.57,4.91,2.66-1.56,4-4.56,3.11-7.55-.96-3.23-3.75-5.23-6.36-7.1-3.07-2.21-6.07-4.63-9.28-6.62-1.78-1.1-5.29-2.31-7.13-.76-.56-.26-1.11-.48-1.56-.7-.16-.08-.31-.15-.47-.23-.99-.9-2.03-1.76-3.09-2.57-1.72-1.32-3.55-2.49-5.46-3.53,3.76-3.14,7.66-6.09,11.72-8.82,3.47,1.93,6.97,3.79,10.53,5.53,1.12,4.62,5.96,8.15,9.67,10.72,2.47,1.71,5.25,3.9,8.31,4.31,2.74.37,5.49-.96,6.22-3.77.74-2.82-.66-5.45-2.39-7.58-1.83-2.25-4.05-4.19-6.48-5.77-2.33-1.51-4.9-2.69-7.56-3.46-2.03-.59-5.17-1.47-6.83.21-.68-.37-1.37-.72-1.98-1.05-1.45-.81-2.9-1.62-4.35-2.44,2.83-1.7,5.72-3.28,8.69-4.71,1.15-.55,2.33-1.12,3.53-1.66,1.15.77,2.33,1.49,3.52,2.18,1.04.61,2.11,1.16,3.17,1.74-.08.69.19,1.26.62,1.71.06.12.13.23.24.34,2.89,2.66,6.69,6.09,10.97,5.41,2.22-.35,3.72-2.48,2.94-4.67-.67-1.88-2.37-3.32-4.09-4.23-1.73-.91-3.71-1.39-5.66-1.33-.72.02-1.6.11-2.42.33-1.38-.77-2.67-1.7-4.08-2.42-.46-.23-.94-.41-1.41-.61,2.67-.95,5.42-1.61,8.2-1.57,12.41.19,18.92,13.3,16.07,24.25-.07.26-.03.48.05.68,0,.02-.02.03-.03.05-1.28,3.51-3.71,6.36-6.07,9.2-2.67,3.21-5.34,6.42-8.01,9.62-5.26,6.32-10.52,12.64-15.78,18.96-.15.19-.22.38-.25.58-.06.04-.12.06-.18.11-10.89,10.44-23.17,19.25-35.91,27.28-5.88,3.71-12.49,7.86-19.75,7.11-7.91-.82-10.94-7.44-11.45-14.5ZM321.94,309.42s.02.07.03.1c-.02-.03-.04-.07-.05-.1,0,0,.02,0,.02,0ZM340.82,323.66s-.06-.01-.09-.02c-.2-.04-.38-.12-.57-.17.22.06.44.13.67.18ZM301.36,197.16c.11.07.24.11.35.16-.06.01-.12.02-.18.04-.33.1-.64.23-.97.34.27-.18.53-.36.8-.54ZM716.11,141.27s-.01-.01-.02-.02c.03.01.06.03.1.04.24.1.75.39-.07-.02ZM150.99,280.52s0,0,0,0c-.03-.14-.07-.29-.11-.43.08.07.16.13.25.18-.05.08-.09.16-.14.25ZM154.3,368.16s.05-.05.08-.07c.18.27.36.54.54.81-.21-.25-.41-.49-.62-.74ZM545.89,445.07c-.31-.08-.62-.17-.93-.25,2.56-.54,2.88-.46.93.25ZM345.4,473.8c.13.03.26.04.4.06-.16.06-.32.11-.48.16.03-.07.06-.15.08-.22ZM385.4,555.36s0,0,0,0c0,0,0,0,0,0h0ZM412.59,632.5c-.06.22-.14.43-.25.63.1-.2.18-.42.25-.63ZM781.36,351.16s-.02-.06-.03-.09c.01.04.06.08.08.13-.01-.01-.03-.02-.05-.03ZM781.33,351.06s-.02-.06-.03-.08c0,0,.01,0,.02,0,0,.03,0,.06,0,.09ZM798.92,279.55s0,0,0,0c0-.02,0-.03,0-.05,0,.03.01.05.02.08,0,0-.01-.01-.01-.02ZM737.5,220.46c-.29.04-.58.07-.87.11.31-.06.62-.11.92-.16-.02.01-.03.03-.05.05ZM351.01,373.57s-.06,0-.09-.01c.6-.22,1.2-.45,1.81-.68-.56.24-1.13.47-1.71.69ZM266.2,399.65s-.02-.01-.03-.02c.71-.11,1.42-.23,2.14-.35-.7.17-1.4.3-2.11.37ZM290.1,368.69c-.04-.05-.09-.1-.13-.15.26.13.52.27.78.42-.22-.09-.44-.17-.65-.26ZM234.64,304.19c.23.12.46.24.68.37-.23-.12-.45-.25-.68-.37ZM149.54,309.49c.11-.21.21-.43.32-.64-.1.36-.2.71-.3,1.07,0-.14,0-.29-.01-.43ZM339.81,231.73s-.09.04-.14.06c.05-.03.09-.06.14-.09,0,0,0,.02,0,.03ZM237.38,254.84c-.05-.08-.1-.15-.15-.23.18.16.37.3.55.46-.13-.08-.27-.16-.4-.23ZM706.72,125.04s-.02-.05-.03-.08c.04.03.08.06.12.09-.03,0-.06,0-.09,0ZM696.97,99.26c-.06-.06-.13-.1-.2-.16.66.52,1.31,1.05,1.93,1.61-.61-.43-1.18-.9-1.74-1.45ZM328.19,157.28c.22-.3.44-.59.66-.89-.22.31-.43.64-.64.96,0-.02-.01-.05-.02-.07ZM340.05,147.7c.13-.05.27-.11.42-.17-.14.06-.28.12-.42.18,0,0,0-.01,0-.02ZM511.6,80.74c.37-.43.72-.87,1.08-1.31-.35.47-.71.93-1.06,1.4,0-.03-.01-.06-.02-.09ZM489.77,21.44c-.07-.38-.15-.75-.26-1.12.15.4.28.81.38,1.23-.04-.04-.08-.07-.12-.1ZM457.83,27.75c-.19.02-.38.04-.57.05.22-.07.43-.15.65-.23-.03.06-.06.12-.08.18ZM266.13,11.21s-.07-.04-.1-.06c.04.02.07.04.11.05h0ZM210.23,227.88s-.08.02-.12.04c.04-.02.08-.03.13-.05,0,0,0,0,0,.01ZM50.67,216.84s0,.03,0,.05c-.02-.05-.04-.1-.06-.16.02.04.05.07.07.11ZM436.5,363.56l1.45-2.14c-.49.87-.98,1.73-1.47,2.6.01-.16.02-.31.02-.46ZM459.65,328.37c.28-.16.55-.34.81-.54-.34.38-.66.77-1,1.16.08-.2.14-.4.19-.61ZM661.07,454.53s-.08.03-.12.05c.42-.47.83-.95,1.25-1.42-.37.46-.75.92-1.12,1.37ZM595.73,498.49c-.08.03-.16.05-.24.07.15-.07.29-.14.44-.2-.07.04-.13.09-.2.13ZM291.88,490.91c-.04.05-.07.11-.11.17.03-.1.06-.19.1-.29,0,.04.01.08.01.12ZM483.1,470.94s.04.01.06.02c-.07,0-.15,0-.22,0,.05,0,.11,0,.16-.01ZM509.62,531.17s-.07.05-.11.07c.04-.03.08-.05.12-.08,0,0,0,0,0,0ZM678.41,683.2s.02-.03.03-.05c.1-.1.19-.2.28-.31.08-.06.04.02-.31.35ZM89.6,529.47s.05-.07.08-.1c-.02.09-.02.17-.04.25-.01-.05-.03-.1-.04-.15ZM45.19,475.4s.07-.05.11-.08c.03,1.83,0,1.88-.11.08ZM114.23,661.07c.25.2.49.4.74.59-.31-.11-.62-.23-.93-.35.06-.08.13-.16.19-.24ZM53.67,547.74s-.17-.21-.27-.35c.19.08.32.19.27.35ZM53.36,547.37s.06.11.11.2c.03.06.06.1.08.13-.06-.11-.15-.26-.2-.34,0,0,.01,0,.02,0ZM589.45,661.82s-.01-.02-.02-.02c0,0,0-.01,0-.02,0,.01.01.03.02.04ZM743.46,468.15c-.11.2-.21.38-.19.44-.07-.2.02-.34.19-.44ZM745.5,467.83s.02.03.03.04c-.01,0-.03-.03-.05-.04,0,0,.01,0,.02,0ZM756.19,540.81s-.01.03-.02.05c-.04.07-.06-.02.03-.15,0,.03,0,.08,0,.1ZM629.56,719.35h0s-.02.02,0,0ZM549.2,593.28c-.01-.33-.03-.67-.05-1,.18.26.36.52.54.79-.16.07-.32.14-.48.22ZM629.22,745.89c.15-.01.3-.04.45-.06-.18.15-.37.29-.56.44.04-.13.07-.25.11-.38ZM522.41,753.15s0,.02,0,.03c-.28.01-.56.04-.83.07-.02-.11-.05-.23-.08-.34.3.1.61.17.92.24ZM658.29,720.02c0-.37.05-.74.12-1.11-.02.52-.03,1.04-.01,1.56-.04-.15-.07-.3-.11-.45ZM704.78,519.63s-.03.03-.01-.02c0,0,.01.01.01.02ZM135.15,396.19s.02-.09.02-.13c.06.11.13.22.19.34-.07-.07-.14-.13-.21-.2ZM136.4,502.9c-.45-.23-.89-.48-1.32-.75.48.22.93.48,1.36.77-.01,0-.03-.01-.04-.02ZM131.19,501.31s0,0,0,0c0,0,0,0,.01,0,0,0,0,0,0,0ZM119.2,615.52s-.02-.03-.03-.05c.02.02.03.03.05.05,0,0,0,0-.01,0ZM52.38,546.06c-.07-.09-.14-.18-.21-.26.1.08.2.16.3.24-.03,0-.06.02-.09.02ZM49.69,571.96c-.05.1-.08.21-.12.31-.12-.26-.24-.51-.36-.77.15.16.31.31.48.46ZM407.43,726.32c-.05-.16-.09-.32-.14-.49.04.16.09.33.14.49ZM421.16,720.2c-.01.16-.02.32-.03.48-.04-.53,0-1.08.13-1.66.03-.12.08-.23.11-.35-.07.51-.17,1.02-.22,1.53ZM476.52,712.48s.04-.06.05-.09c.03.06.06.11.09.17-.05-.02-.1-.05-.15-.07ZM475.45,696.57h0s0,0,0,0c0,0,0,0,0,0ZM492.39,678.21c.09,0,.17-.01.26-.02-.1.06-.21.12-.31.17.02-.05.03-.1.05-.15ZM520.82,736.52c0,.46,0,.93.01,1.4-.14-.68-.23-1.36-.27-2.06.06.23.15.45.25.66ZM450.69,749.31c-.04-.09-.06-.17-.09-.26.03.09.06.18.09.26ZM396.31,769.02s.04.06.06.09c-.05-.04-.09-.07-.14-.11.03,0,.05.01.08.02ZM595.53,775.5s.02,0,.03-.01c-.02,0-.03.01-.05.02,0,0,.01,0,.02,0ZM640.07,748.75c.15-.14.27-.29.39-.45.08,0,.15,0,.23-.01-.26.2-.52.39-.77.59.05-.04.1-.08.15-.13ZM664.68,701.31s-.05.09-.08.13c.03-.04.05-.09.08-.13ZM726.11,653.17c.19-.03.37-.09.55-.15-.23.14-.46.28-.69.41.05-.09.1-.17.14-.26ZM744.35,451.67s0,0,0,.01v-.05s0,.03,0,.04ZM601.86,618.51c0-.07,0-.15,0-.22,0,.08.02.16.02.24,0,0-.01-.01-.02-.02ZM601.1,601.45c0-.05-.02-.11-.03-.16.02-.11.02-.23.04-.34,0,.25,0,.5,0,.75,0-.08,0-.17-.02-.25ZM436.86,655.94c.05-.07.11-.13.16-.2,0,.07.01.14.02.22-.06,0-.12-.01-.18-.02ZM410.11,671.44s-.1.03-.14.06c-.04-.56-.1-1.11-.12-1.67.09.54.17,1.08.26,1.61ZM386.11,675.23c-.1.03-.21.05-.3.1.12-.39.26-.76.43-1.13-.05.34-.09.69-.13,1.03ZM311.7,711.35s-.02-.03-.03-.04c.02.01.03.03.05.04,0,0-.01,0-.01,0ZM298.55,609.74s-.04-.08-.06-.13c.02-.02.05-.05.07-.08.06.03.13.04.2.06-.07.05-.14.1-.21.14ZM245.27,636.84c-.07-.04-.13-.07-.2-.11.02-.03.04-.06.06-.09.02-.04.03-.08.05-.11.03.1.06.21.09.31ZM432.65,594.94c.16-.2.31-.41.47-.62-.15.22-.3.44-.45.67,0-.02-.01-.03-.01-.05ZM782.54,352.59c-.05-.1-.13-.19-.19-.29.1.11.19.21.29.32-.03,0-.07-.02-.1-.03ZM439.66,402.52c-.11.2-.19.41-.27.62-.13.02-.26.06-.38.09.21-.24.42-.48.65-.71ZM521.15,484.75c.06.04.13.07.19.11.08.11.16.22.23.33.03.05.07.1.1.15-.17-.2-.35-.39-.53-.59ZM52.13,382.01s.01,0,.02.01c.16.08.33.15.5.22.18.4.39.78.58,1.16-.16-.19-.34-.36-.49-.56-.21-.27-.41-.55-.61-.84ZM10.64,479.78c.34.32.67.63,1.03.93.05.04.11.07.16.11.12.19.25.38.37.56-.54-.52-1.06-1.06-1.57-1.61ZM579.66,678.25s-.02-.06-.03-.09c.05.01.1.03.15.04-.04.01-.07.03-.11.05ZM450.33,752.94c-.06-.01-.13-.02-.19-.04-.57-.13-1.12-.29-1.69-.44.61.14,1.22.28,1.83.42.02.02.03.04.05.06Z" fill="#fbfcfe"/></g></svg>