<?xml version="1.0" encoding="UTF-8"?><svg id="uuid-132cdf9c-c2c6-4edc-a81d-4aeb5ed861af" xmlns="http://www.w3.org/2000/svg" viewBox="0 0 167.06 40.41"><g id="uuid-747caa12-d628-450d-8121-203adc604fe7"><path d="M36.87,34.95c-.07.16-.03.3.06.41.08.74-.21,1.65.7,1.98.51.18,1.15.18,1.68.2.62.02,1.24,0,1.86-.05,2.48-.23,4.86-.98,7.21-1.74.11-.04.18-.11.22-.2,3.08-1.08,6.31-2.3,8.46-4.87.1-.12.11-.26.06-.38,2.05-2.54,4.54-4.91,5.35-8.18.04-.16-.02-.28-.12-.36.78-3.68,1.5-7.52.45-11.22-.03-.11-.1-.19-.18-.22-.68-3.51-3.21-6.47-6.48-7.89-1.43-.62-2.98-.95-4.53-1.02-.34-.06-.67-.1-1.02-.12-1.25-.07-2.52.1-3.75.3-.74.12-1.37.43-1.81.93-.13-.02-.27.02-.36.16-2.96,4.58-1.43,10.22-2.07,15.3,0,.04,0,.07,0,.1-.01.03-.03.06-.03.1-.75,5.92-3.24,11.4-5.7,16.78ZM57.67,20.04c-.07.04-.13.1-.16.2-1.2,4.15-4.56,7.08-8.06,9.35-.91.59-1.84,1.16-2.78,1.71-.51.3-1.06.65-1.67.65-.75,0-1.17-.55-1.24-1.24-.1-1.05.35-2.09.7-3.05.41-1.12.82-2.24,1.23-3.36.05-.15,0-.27-.08-.34.39-.83.78-1.67,1.16-2.5.36-.78.71-1.56.87-2.41.35-1.81,0-3.65.14-5.47,0-.08-.01-.14-.05-.19,0,0,0-.01,0-.02-.08-.62-.22-1.22-.46-1.8-.25-.61-.53-1.09-.59-1.76-.1-1.21-.15-2.59.72-3.56.02-.02.03-.05.05-.08,3.5-1.11,8-1.17,9.8,2.67,1.63,3.47,1.65,7.62.42,11.2Z" fill="#fafbfd"/><path d="M101.67,19.4c-.64,2.69-1.34,5.36-2.09,8.02-.04.14,0,.25.09.33-.55,1.33-.95,2.72-1.16,4.15-.14.92-.21,1.86-.2,2.79,0,.84,0,1.77.51,2.48.15.21.33.38.52.52.06.08.13.16.21.23.6.54,1.46.63,2.23.5,1.24-.21,2.34-.69,3.62-.69,1.29,0,2.55.25,3.79.57,2.26.59,4.48,1.42,6.84,1.47,1.13.02,2.26-.14,3.35-.43.47-.13.98-.27,1.48-.44,1.42-.31,3.5-1.13,3.01-2.81-.26-.89-1.2-1.12-1.99-.82-.12.05-.24.1-.36.15-.05,0-.11,0-.18.02-2.42.98-4.69.53-7.04-.37-1.95-.75-3.9-1.7-6.03-1.77-1.16-.04-2.2.3-3.29.64-.28.09-.56.17-.85.23-.52.11-.79.2-1.18-.17-.62-.58-.46-1.68-.3-2.46.26-1.25.76-2.43,1.1-3.66.35-1.28.59-2.58.81-3.89.05-.32.1-.65.15-.97.42-1.46.83-2.92,1.22-4.39.04-.15.03-.28,0-.4.42-1.5.71-3.04.87-4.59,0-.03,0-.06,0-.09.48-1.78.96-3.57,1.43-5.35.04-.15.03-.29,0-.4,0,0,0,0,0,0,.1-.99.12-1.98.04-2.97-.04-.49-.06-1.03-.2-1.5-.08-.25-.22-.46-.4-.6-.04-.08-.09-.16-.16-.22-.37-.33-1.01-.2-1.41,0-.47.23-.83.62-1.08,1.07-.58,1.04-.84,2.32-1.09,3.47-.25,1.16-.42,2.34-.52,3.52-.47,1.33-.75,2.72-1,4.11-.27,1.48-.53,2.97-.8,4.45-.02.12.01.22.08.3Z" fill="#fafbfd"/><path d="M112.98,24.39c.48,1.3,1.06,2.6,1.98,3.65,1.93,2.19,4.96,2.82,7.74,3.08,1.33.12,2.81.38,4.05-.25.63-.32,1.17-.79,1.82-1.08.73-.33,1.51-.55,2.2-.98,2.24-1.39,3.94-3.93,5.01-6.29,2.22-4.92,2.27-11.26-1.09-15.71-1.79-2.36-4.41-3.85-7.36-4.07-2.85-.21-5.58.22-7.93,1.72-.06.01-.11.03-.17.08-.04.03-.07.07-.1.1-.35.24-.7.51-1.03.8-.11.1-.13.22-.1.33-.04.06-.07.12-.11.18-.48.6-.92,1.23-1.36,1.86-.87,1.24-1.69,2.51-2.39,3.85-1.33,2.53-2.26,5.33-2.12,8.22.07,1.55.44,3.08.97,4.53ZM116.78,24.98c-.84-1.68-1.18-3.66-1.23-5.53.04-.05.06-.11.07-.19.12-2.15.69-4.26,1.69-6.17.97-1.86,2.35-3.35,3.84-4.78,1.58-.86,3.37-1.86,5.18-2.01,1.61-.13,3.28.39,4.5,1.44,2.92,2.51,2.69,6.79,2.47,10.27,0,.11.03.19.08.24-.2.99-.5,1.97-.92,2.89-.44.98-1.01,1.9-1.55,2.83-.05.08-.05.16-.04.23-1.45,1.04-3,1.92-4.57,2.76-.81.43-1.62.94-2.51,1.17-.94.24-1.92.12-2.84-.14-1.69-.49-3.37-1.4-4.18-3.02Z" fill="#fafbfd"/><path d="M2.8,36.77c2.57-.22,4.93-1.64,7.54-.91,1.25.34,2.39.97,3.6,1.4,1.19.42,2.46.67,3.73.63,2.07-.06,4.28-.94,5.46-2.73.58-.87.77-2.04.12-2.93-.71-.97-1.92-.81-2.93-.54-.08.02-.13.06-.17.1-1.65.44-3.35.74-5.06.6-.87-.07-1.72-.27-2.52-.62-.75-.33-1.44-.77-2.21-1.06-1.46-.55-2.79-.17-4.16.41-.69.29-1.37.27-1.44-.64-.02-.23-.03-.46-.03-.69.06-.38.15-.77.23-1.15.3-1.29.68-2.56,1.05-3.84.66-2.31,1.27-4.66,1.28-7.08.08-.15.12-.31.11-.48-.03-2.18-.07-4.36-.1-6.54,0-.1-.02-.2-.05-.29-.15-2.74-.59-5.46-1.32-8.1.05-.43-.08-.79-.32-1.07-.12-.3-.34-.49-.59-.58-.03-.02-.05-.03-.08-.04-.24-.17-.54-.26-.83-.28-.08-.03-.17-.06-.26-.09-.74-.22-1.5.08-2.05.57-.22.2-.42.45-.55.72-.08.16-.13.33-.15.49-.05.14-.07.3-.06.45.02.29.12.56.32.77.19.44.4.87.65,1.28.35,1.29.64,2.58.87,3.89h0c-.02.09-.03.19-.02.29.16,1.83.22,3.66.19,5.5v.02c-.02.08-.02.16-.02.25.06,3.17-.54,6.27-1.22,9.36-.34,1.52-.69,3.03-.97,4.56-.15.8-.26,1.6-.26,2.39-.1.55-.19,1.11-.29,1.66,0,.02,0,.05,0,.08-.02.02-.03.05-.03.08-.26,1.02-.43,2.15.13,3.11.54.91,1.43,1.14,2.43,1.05Z" fill="#fafbfd"/><path d="M67.77,8.77c.06.26.18.48.33.66.07.12.16.22.27.3.12.09.26.15.4.18,0,0,.01,0,.02,0,0,0,0,0,.01,0,0,0,.01.01.02.02.36.28.8.36,1.25.38.49.03,1,0,1.4-.31.19-.14.34-.3.47-.49.89-.48,1.57-1.39,1.48-2.44-.06-.69-.4-1.24-.94-1.65-.47-.34-1.04-.48-1.6-.55-.64-.08-1.34-.04-1.9.29-.56.32-.94.91-1.09,1.54-.06.24-.09.49-.09.74-.12.38-.16.79-.04,1.18,0,.05.01.1.02.15Z" fill="#fafbfd"/><path d="M67.36,29.43c.06.12.14.22.27.29.13.07.27.1.41.11.15.06.31.11.48.14.49.08.95.1,1.44.03.33-.05.64-.16.93-.32.64-.23,1.21-.69,1.5-1.31.2-.43.28-.89.19-1.36-.09-.47-.36-.89-.68-1.24-.55-.62-1.41-1.03-2.25-.99-.03,0-.07,0-.1.01-.03,0-.05,0-.08-.01-.78-.06-1.39.35-1.75.96-.04.06-.08.12-.12.17-.19.23-.35.49-.47.77-.34.81-.48,1.95.14,2.66.03.03.06.05.09.08Z" fill="#fafbfd"/><path d="M22.31,16.58c.14.08.28.11.41.1.12.09.25.19.37.28.23.2.46.39.7.58.56.48,1.1.98,1.62,1.51.4.41.77.85.99,1.39.2.5.31,1.04.41,1.57-.01.07-.02.14-.02.22.24,2.9.36,5.8.34,8.71,0,1.36-.09,2.73-.1,4.09,0,1.01.13,2.13.88,2.89,1.51,1.53,3.98.45,4.24-1.57.15-1.19-.29-2.37-.54-3.52-.3-1.36-.49-2.73-.6-4.11-.2-2.51-.17-5.02-.08-7.53.39-1.82,2.13-3.16,3.28-4.51.32-.37.6-.76.86-1.16,1.7-1.48,3.25-3.11,4.31-5.11.86-1.64,1.36-3.46,1.44-5.31.03-.72.09-1.62-.53-2.13-.1-.08-.21-.14-.32-.19-.15-.21-.36-.36-.68-.41-1.05-.15-1.64,1.11-2.02,1.87-1.14,2.27-1.79,4.74-2.95,7-.68,1.33-1.54,2.52-2.68,3.5-1.13.98-2.85,2.09-4.36,1.27-.09-.05-.18-.05-.25-.03-1.22-.89-2.33-1.93-3.31-3.08.04-.12.04-.25-.06-.37-2.07-2.57-3.16-5.67-3.37-8.94-.07-1.14-.21-2.65-1.32-3.29-.39-.22-.84-.19-1.21.04-.17.05-.33.12-.48.22-.63.4-.78,1.1-.78,1.8,0,1.97.12,3.98.5,5.92.66,3.31,2.34,6.52,5.31,8.29Z" fill="#fafbfd"/><path d="M77.33,38.24c.11.14.24.28.42.39.47.31,1.02.37,1.56.32.35.09.72-.01,1.02-.23.26-.13.43-.35.52-.61.29-.55.32-1.22.33-1.83,0-2.78-.05-5.55-.08-8.33.1-.06.17-.15.17-.29.04-1.28.07-2.63.62-3.81.57-1.21,1.55-1.88,2.85-2.11.64-.11,1.28-.17,1.92-.18,1.65.04,3.28.35,4.88.8,1.75.49,4.18,1.79,5.71.15.61-.65,1.22-1.73.89-2.64-.28-.78-1.1-1.12-1.85-1.24-.95-.15-1.92-.24-2.89-.28-1.06-.13-2.13-.21-3.17-.28-.92-.06-1.84-.07-2.75-.04-.38-.04-.77-.09-1.15-.13-.78-.09-1.67-.13-2.37-.52-.67-.37-.62-1.2-.78-1.88,0-.15,0-.31.02-.46,0-.03,0-.05-.01-.08.01-.04.03-.08.03-.12v-5.67c0-.06-.02-.12-.04-.17.19-.94.4-2.03,1.15-2.71.86-.78,2.35-.83,3.45-.88,2.49-.11,5.01,0,7.49.13.13,0,.22-.05.28-.13,1,0,2,.02,3,0,.82-.02,1.65-.23,1.78-1.17.12-.9-.5-1.61-1.26-1.95-1.15-.52-2.54-.66-3.76-.89-1.92-.36-3.86-.65-5.8-.88-.22-.05-.44-.11-.66-.15-1.43-.28-2.99-.49-4.46-.3-.37-.01-.74,0-1.1.01-.73-.04-1.5.1-2.12.52-.71.47-1.12,1.16-1.18,2.01-.03.41.05.89,0,1.25-.06.38-.25.85-.41,1.25-.05.09-.08.19-.08.31-.17,3.12-.6,6.22-1.28,9.27-.02.09-.02.17-.01.24,0,.02,0,.03,0,.04.03,1.27-.01,2.53-.12,3.79-.11,1.23-.42,2.48-.38,3.72,0,.15.05.27.11.37-.21,2.53-.49,5.06-.87,7.57-.18,1.2-.39,2.4-.58,3.6-.18,1.09-.33,2.28.19,3.3.19.36.47.67.8.91Z" fill="#fafbfd"/><path d="M138.22,38.31c.11.38.32.72.71.93.72.39,1.46-.08,1.9-.67.49-.67.72-1.52.74-2.33,0-.1-.03-.18-.09-.24,0-1.85.12-3.69.41-5.51.02-.11-.01-.2-.06-.27,0-.02.01-.04.01-.06.08-1.91.29-3.8.63-5.68.02-.09,0-.16-.03-.22,0-.03.02-.06.02-.1-.03-3.57.29-7.13.97-10.64.01-.08,0-.14-.02-.2,0,0,0-.01,0-.02.18-1.09.35-2.17.53-3.26.14-.85.21-1.77.53-2.58.43-1.08,1.23-1.16,2.29-1.06,1.14.11,2.28.25,3.42.41,2.03.28,4.14.48,6.14.96.97.23,1.76.72,2.54,1.32.76.58,1.7,1.27,1.71,2.31,0,.08.03.14.06.19-1.49,4.7-5.29,7.98-9.97,9.3-1.18.33-2.37.62-3.5,1.1-.89.38-2.23.98-2.59,1.97-.29.8.23,1.47.96,1.77,1.05.42,2.25-.21,3.23.35.18.1.36.03.46-.1,3.47.68,6.47,3.17,7.73,6.48-.03.07-.05.14-.02.24.39,1.53.85,3.12,1.55,4.54.65,1.3,1.75,2.02,3.08,2.52.73.28,1.49.47,2.26.57.69.09,1.47.19,2.14-.05,1.19-.41,1.52-1.87.38-2.56-.63-.38-1.4-.53-2.07-.84-.8-.38-1.56-.85-2.25-1.41-.02-.02-.05-.02-.07-.04,0,0,0-.01,0-.02-.15-.25-.3-.5-.44-.76-.02-.03-.04-.07-.06-.1-.52-.94-.96-1.91-1.34-2.91-.45-1.18-.76-2.42-1.26-3.57-.44-1.02-1.12-1.91-2.1-2.45-.48-.26-1-.42-1.54-.51-.4-.06-.91-.2-.75-.75.1-.36.49-.63.76-.85.09-.07.12-.16.12-.24.85-.48,1.69-.98,2.41-1.65.81-.75,1.55-1.59,2.32-2.38,0,0,0,0,0,0,.07-.02.15-.07.2-.15,1.25-1.94,2.29-4.01,3.11-6.17.06-.15.01-.26-.07-.34.13-1.91-.56-3.82-1.86-5.22-.09-.1-.2-.12-.3-.1-1.55-1.32-3.23-2.68-5.31-2.97-.06,0-.11,0-.17,0-1.67-.71-3.41-1.22-5.19-1.5-1.82-.53-3.67-.77-5.55-.09-1.5.54-2.6,1.56-3.23,3.03-.78,1.83-1.2,3.79-1.38,5.76,0,.1,0,.2.03.28-.25,1.27-.48,2.54-.7,3.82-.03.15,0,.31.05.46-.31,1.46-.49,2.95-.52,4.45,0,.07.01.14.03.21-.48,1.47-.74,3.02-.76,4.56,0,.05,0,.11.02.16,0,.01,0,.03-.01.04-.16,1.49-.2,2.99-.12,4.49,0,0,0,.01,0,.02-.23,1.07-.35,2.16-.37,3.26-.12.75-.22,1.5-.29,2.26-.06.69-.15,1.51.1,2.17.1.25.25.47.43.65Z" fill="#fafbfd"/></g></svg>