<svg xmlns="http://www.w3.org/2000/svg" version="1.1" xmlns:xlink="http://www.w3.org/1999/xlink" width="20.52" height="17.36"><svg id="SvgjsSvg1015" xmlns="http://www.w3.org/2000/svg" viewBox="0 0 20.52 17.36">
  <g id="SvgjsG1014">
    <path d="M8.92,3.6C7.58,1.82,5.35.87,3.14,1.18c-1.08.15-2.2.63-2.8,1.58S.03,4.95.89,5.67c1.19.99,2.71.82,4.14,1.08.64.12.92-.87.27-.98-1.21-.22-2.73-.02-3.73-.86-.41-.34-.68-.85-.49-1.38.18-.48.64-.81,1.09-1.03,1.96-.95,4.6-.08,5.86,1.61.39.52,1.28.01.88-.52h0Z" fill="black"></path>
    <path d="M5.45,5.82C2.54,6.12.78,8.72.21,11.38c-.14.66-.39,1.52.03,2.13.33.48,1.01.69,1.54.83,1.12.28,2.33.19,3.41-.22,1.24-.48,2.32-1.33,2.97-2.51.32-.58-.56-1.09-.88-.52-.89,1.61-2.74,2.51-4.55,2.37-.44-.03-.88-.14-1.28-.31-.22-.1-.4-.17-.41-.43-.01-.29.07-.61.13-.89.23-1.14.62-2.27,1.33-3.21s1.78-1.67,2.97-1.79c.28-.03.51-.21.51-.51,0-.25-.24-.54-.51-.51h0Z" fill="black"></path>
    <path d="M7.64,10.7c-.66,1.12-.92,2.5-.56,3.77.31,1.1,1.12,2.08,2.16,2.56,2.25,1.03,4.86-.51,5.4-2.85.32-1.39-.01-2.88-.82-4.05-.37-.54-1.25-.03-.88.52,1.07,1.57,1.17,3.89-.49,5.11-.7.52-1.59.74-2.44.49s-1.53-.93-1.85-1.73c-.44-1.08-.23-2.32.35-3.3.33-.57-.55-1.08-.88-.52h0Z" fill="black"></path>
    <path d="M12.88,10.52c2.14.95,4.92,1.39,6.71-.49.72-.75,1.04-1.74.89-2.76-.15-.95-.75-1.83-1.65-2.19-.65-.26-1.39-.25-2.07-.19-.74.06-1.48.21-2.19.44-.62.2-.36,1.19.27.98.98-.32,2.08-.54,3.11-.42.75.09,1.28.59,1.48,1.31.45,1.63-1.07,2.88-2.55,3.1-1.18.17-2.4-.19-3.48-.66-.25-.11-.55-.07-.7.18-.13.22-.07.59.18.7h0Z" fill="black"></path>
    <path d="M14.69,6.43c.83-.75,1.69-1.76,2.02-2.85.35-1.15-.52-2.18-1.41-2.79-1.72-1.18-4.08-1.02-5.6.41-.85.81-1.36,1.91-1.43,3.08-.04.66.98.65,1.02,0,.12-2.03,2.07-3.61,4.08-3.2.89.18,2.09.78,2.37,1.73.16.54-.3,1.14-.58,1.56-.34.5-.74.95-1.19,1.35-.49.44.23,1.16.72.72h0Z" fill="black"></path>
    <path d="M9.05,4.96c-1.18.58-1.9,1.94-1.79,3.25.06.67.32,1.34.81,1.82.62.61,1.46.62,2.28.56,1.52-.13,2.81-1.2,2.89-2.79.08-1.5-1.14-2.82-2.6-2.98-1.01-.11-1.98.26-2.89.64-.41.17-.77.37-1.02.75-.27.41-.43.92-.62,1.36h.88c-.22-.45-.35-.92-.42-1.42-.08-.56-.83-.4-.98,0-.19.49-.27,1.01-.22,1.54.06.65.96.66,1.02,0,.04-.46.08-.92.12-1.38.04-.43.09-.85-.2-1.21-.55-.68-1.43-.43-2.08-.08-.58.31-.07,1.19.52.88.16-.08.47-.29.66-.22.2.07.12.29.1.48-.04.51-.09,1.02-.13,1.53h1.02c-.04-.45.02-.85.18-1.27h-.98c.08.58.26,1.13.52,1.66.16.32.73.34.88,0,.21-.48.38-1.28.86-1.56.52-.3,1.17-.5,1.75-.63,1.1-.25,2.25.18,2.56,1.34.26.97-.4,2.01-1.35,2.25-.49.13-1.31.23-1.78,0-.43-.21-.66-.74-.73-1.19-.15-.99.38-2,1.27-2.44.59-.29.07-1.17-.52-.88h0Z" fill="black"></path>
    <path d="M3.57,3.64c-.08.02-.12.03-.01.01-.08.01-.16.01-.24.01-.02,0-.22,0-.11,0s-.08-.02-.1-.02c-.08-.02-.16-.04-.23-.06-.07-.02-.12-.06-.03,0-.06-.03-.11-.06-.17-.09-.09-.06-.11-.07-.06-.03.04.03.04.03,0-.01-.04-.04-.05-.04-.02,0,.02.02.03.04.03.07,0,.29-.02.49-.25.69-.13.11-.05-.04-.01.01-.01-.01-.14,0,.03.01.38.02.75-.03,1.12-.13.07-.02.14-.04.2-.06.06-.01.15-.04.04-.01h.1c-.08-.01-.09-.01-.02,0,.06.02.14.03.2.05.3.09.59.19.88.28.08.03.17.07.25.08.11.02-.09-.08,0,0,.1.08-.15-.21-.16-.21-.02-.07-.02-.06,0,.05v-.09c.02.14.02.28.03.41,0,.09.01.18.02.27,0,.04,0,.07,0,.11,0,.09,0,.07.01-.05l.26-.45-.06.04.45-.26s.38-.04.38,0c0-.01-.2-.11-.21-.13-.13-.09.09.09-.03-.02-.06-.06-.12-.11-.17-.17l-.72,1.74c.23-.01-.03-.04-.08-.04.09.06.11.07.05.03-.05-.04-.04-.03.04.04.13.14.25.28.39.4.36.33.81.57,1.31.57.55,0,1.1-.29,1.35-.79.06-.12.11-.25.15-.38.02-.06.11-.17.02-.08s-.41.37-.16.24c.18-.09.31-.24.41-.41.41-.7-.06-1.37-.68-1.7-.17-.09-.35-.16-.52-.25-.07-.04-.14-.09-.21-.12-.07-.05-.05-.03.04.04-.03-.03-.06-.05-.09-.08-.62-.55-1.13-1.12-2.02-1.14s-1.37,1.15-.72,1.74c.07.07.14.13.21.21.12.13,0-.02.05.07.04.07.08.14.12.21.1.18-.03-.1.05.12.18.5.71.89,1.26.71.5-.16.9-.72.71-1.26-.2-.57-.5-1.09-.96-1.5l-.72,1.74c.14,0,.02,0-.05,0,.12.01.02.02-.04-.02.05.03.11.07.16.1.11.06-.11-.11-.02-.02.16.16.33.32.5.47.21.19.44.37.7.51.13.07.26.12.39.19.06.03.11.06.17.09.05.03.19.15.06.02l-.26-.45.02.07.1-.79-.03.05.37-.37c-.39.24-.63.5-.79.94-.02.06-.04.11-.06.17-.02.05-.02.05,0-.02.04-.12.11-.21.24-.27.1-.05.19-.04.29-.06.07.01.08.01.02,0-.07-.02-.05-.01.07.03-.06,0-.1-.1-.01,0-.06-.07-.13-.13-.2-.2-.1-.1-.19-.21-.3-.3-.38-.33-.84-.56-1.35-.54-.89.05-1.34,1.08-.72,1.74.34.37.83.73,1.33.85.83.2,1.56-.4,1.53-1.25-.02-.51-.03-1.07-.23-1.54-.25-.59-.78-.84-1.36-1.02-.42-.14-.85-.31-1.29-.38-.35-.06-.66-.05-1.01.03-.1.02-.2.05-.31.08-.05.01-.1.03-.15.04-.06.01-.15,0-.04,0-.61.02-1.17.02-1.65.45-.51.46-.58,1.24-.24,1.82.63,1.1,2.14,1.41,3.29,1.15.52-.11.88-.75.71-1.26-.18-.55-.7-.84-1.26-.71h0Z" fill="black"></path>
    <path d="M5.26,6.44c-1.37.63-2.63,1.5-3.49,2.75-.78,1.12-1.72,3.7.08,4.35.61.22,1.38.23,2.03.17.73-.07,1.41-.24,2.08-.54.59-.27,1.15-.66,1.58-1.14.62-.69.94-1.72.18-2.44s-2.01-.54-2.88-.28-1.92.58-2.19,1.55,1,1.74,1.71.99c.91-.96,1.81-1.93,2.72-2.89l-.99.26.06.02-.45-.26c-.23-.25-.28-.5-.17-.74l-.1.24c-.06.17-.1.33-.11.52,0,.39.18.75.49.99.1.08.2.14.31.21-.14-.09.01.03.06.07.15.14-.05-.11.06.08.05.08.1.15.15.23.22.36.44.74.74,1.04.17.17.37.3.56.45.1.07.1.07,0,0,.03.03.07.06.1.09.03.16-.1-.33-.03-.05.14.53.73.86,1.26.71s.85-.72.71-1.26c-.13-.51-.46-.85-.87-1.16-.06-.05-.12-.09-.18-.14-.09-.07.08.09-.04-.04-.06-.07-.13-.13-.19-.2.09.11,0,0-.03-.05-.18-.27-.33-.56-.53-.82-.12-.17-.25-.33-.4-.47-.11-.1-.23-.19-.35-.27-.07-.04-.21-.19-.05-.02l.26.45c.02.11.01.21-.02.31.05-.1.09-.21.13-.31.06-.23.07-.47.02-.7-.11-.48-.41-.74-.86-.92-.32-.13-.77.02-.99.26-.91.96-1.81,1.93-2.72,2.89l1.71.99s-.14.25-.16.23c0,0,.29-.14.08-.05.28-.12.57-.22.85-.3.22-.06.43-.12.61-.13.12,0,.25-.01.38,0,.15.02.33.24-.01-.23l-.21-.29v-.09s.09-.08-.01.03c.1-.11-.06.07-.09.1-.07.07-.14.14-.22.21-.04.03-.08.07-.11.1-.13.11.11-.07-.03.02-.17.11-.33.22-.51.31-.04.02-.32.14-.17.08-.11.04-.22.08-.33.12-.19.06-.39.11-.59.14-.05,0-.1.02-.15.03.02,0,.14-.02.02,0s-.24.02-.36.03c-.22,0-.44,0-.66-.01-.05,0-.1,0-.15-.01.02,0,.14.02.02,0-.09-.01-.26-.09-.34-.07.1-.02.39.7.44.51.01-.04,0-.11,0-.16,0-.04.02-.3,0-.17.03-.26.11-.51.2-.75.05-.14,0-.03.07-.17.05-.1.1-.2.16-.3.1-.17.27-.42.33-.48.72-.86,1.61-1.38,2.65-1.87.5-.23.63-.95.37-1.4-.3-.51-.89-.6-1.4-.37h0Z" fill="black"></path>
    <path d="M7.84,11.67c-.13.7-.14,1.37-.04,2.07.1.62.28,1.33.78,1.75,1.02.85,2.55.67,3.77.52l-.88-1.54c.1-.11.11-.13.04-.05.12-.09.14-.11.05-.05.27-.13,0-.01-.08,0-.22.07.22-.01,0,0-.1,0-.19.01-.29.02-.57.05-1.08.18-1.51.59-.37.35-.38.95-.08,1.34s.87.52,1.32.26c.5-.29,1.01-.59,1.51-.88.47-.28,1.04-.53,1.41-.94.51-.57.62-1.39.26-2.07-.08-.15-.2-.29-.3-.43-.04-.05-.09-.09-.12-.15.02.03.11.18.02.02-.05-.09-.11-.18-.16-.28-.02-.05-.05-.1-.07-.15.08.23,0-.03-.02-.06-.2-.53-.36-1.16-.79-1.56-.35-.33-.78-.41-1.24-.34-.29.04-.57.12-.85.19-.66.15-1.34.24-1.69.9s-.11,1.41.29,1.99.99,1.18,1.77,1.17,1.38-.49,1.69-1.16c.18-.38.19-.78-.08-1.13s-.65-.42-1.07-.37c-.94.13-1.78.97-1.95,1.9-.07.37-.01.72.26.99.25.25.65.37.99.26.71-.21,1.36-.61,1.84-1.17.35-.4.43-1.05,0-1.44-.38-.35-1.07-.43-1.44,0-.08.09-.16.18-.25.26-.05.04-.1.09-.15.13.11-.08.07-.05-.02,0-.1.07-.21.12-.31.18-.13.07,0,.03.02,0-.02.03-.19.07-.23.08l1.26,1.26c.01-.07.03-.14.05-.21.05-.18-.07.11,0,.02.02-.03.06-.14.09-.15-.08.1-.1.13-.05.07.02-.03.05-.05.07-.08.12-.13-.11.06-.01,0,.05-.03.1-.06.15-.09.17-.1-.18.03.02,0,.07-.01.14-.03.21-.04l-1.15-1.5c-.03.06-.06.12-.1.19-.09.17.07-.15,0,.02,0,0-.11.12,0,.01.09-.09.03-.02,0,0,.07-.03.12-.04.19-.06.18-.04-.12-.02.07,0,.14.02.04,0,0-.01,0,0,.19.09.09.03s.06.05.06.06c0-.01-.07-.06-.08-.07-.02-.02-.19-.17-.18-.19,0,0,.11.16.05.06-.03-.04-.06-.08-.08-.12-.04-.07-.09-.14-.13-.21-.02-.03-.05-.07-.06-.11.01.05.04.11.05.15.03.11,0,.05,0,0,0,.07-.01.14-.04.21-.04.1-.17.23-.26.29-.07.04-.14.04-.02.03.39-.06.79-.18,1.17-.27.08-.02.19-.03.27-.06h.04c-.17-.03-.34-.06-.51-.08-.07-.03-.1-.09-.15-.13-.09-.07-.03-.05-.01,0,.02.04.04.07.06.11.01.03.05.08.05.11,0-.07-.05-.14,0-.02.15.39.28.78.47,1.16.07.15.16.28.25.41.08.11.17.22.26.32.02.02.08.12.01.01-.07-.12.01.03.03.05.07.09-.03-.07-.04-.08s0-.2-.01-.1c-.01.12.02-.1.02-.1-.02.07.02.09.01.01s.04-.06,0,0c0,0,.13-.14.05-.06-.09.08.06-.04.06-.04,0,.01-.11.08-.13.08-.78.49-1.6.94-2.39,1.4l1.24,1.6c-.12.08-.13.09-.04.03.1-.05.08-.04-.05.02.05-.01.09-.03.14-.04.11-.02.1-.02-.05,0,.07-.03.21-.02.29-.02.16-.01.32-.03.48-.06.56-.09,1.04-.39,1.35-.87.38-.6-.1-1.63-.88-1.54-.49.06-.99.12-1.48.12-.12,0-.25,0-.37-.01-.05,0-.32-.04-.09,0-.12-.02-.23-.04-.35-.07-.05-.01-.1-.03-.15-.04.12.06.13.06.03.01-.09-.06-.09-.05.02.03-.08-.08-.07-.07.01.02-.05-.1-.05-.09,0,.03-.02-.05-.04-.1-.05-.15-.06-.2-.11-.41-.15-.62-.02-.12-.02-.12,0,0,0-.06-.01-.12-.02-.18,0-.12-.01-.24,0-.36s.01-.24.02-.36c.01-.12.01-.12,0,0,0-.06.02-.12.03-.18.1-.52-.14-1.13-.71-1.26-.5-.11-1.15.15-1.26.71h0Z" fill="black"></path>
    <path d="M9.21,3.39l-.64.27.79,1.87c.78-.46,1.44-.96,1.85-1.79.03-.05.1-.19.03-.08-.09.06-.08.05.02-.01l.09-.05c.27-.14-.21.08.14-.06.11-.04.23-.09.34-.13.45-.18.9-.36,1.35-.54.48-.19.8-.58.73-1.12-.06-.48-.49-.91-1-.89-.59.03-1.17.06-1.76.09l.27,2c.32-.1.74-.22,1.02-.25.31-.04.54-.01.84.07-.09-.03-.07-.04,0,0,0,0,.23.14.13.07s.11.1.11.1c.06.05.08.09.02,0,.05.06.07.13.12.19.08.1-.05-.18.01.04.04.14-.02.05,0-.01,0,.1,0,.12.01.04.02-.08.01-.06-.01.04-.2.88.7,1.58,1.5,1.15.51-.27.81-.7,1.02-1.23.19-.47-.17-1.02-.59-1.2-.49-.21-.98,0-1.27.42-.35.49-.62.86-1,1.31-.15.19-.31.37-.49.54-.05.05-.1.09-.15.14.07-.05.06-.05-.04.02-.06.04-.12.07-.18.1.06-.03.12-.04.19-.04l.52.14-.05-.04.37.37c.06.15.06.15.02,0-.02-.07-.03-.15-.05-.23-.02-.13-.03-.15-.01-.07,0-.08-.01-.15-.02-.23,0-.15,0-.31,0-.46,0-.08.01-.15.02-.23-.01.08,0,.06.01-.07.06-.37.01-.72-.26-.99-.24-.24-.66-.38-.99-.26-.99.35-1.67,1.03-2.06,2-.15.37.08.85.37,1.07.32.25.78.29,1.13.08.88-.51,1.7-1.15,2.4-1.89l-1.71-.45c.06.17.02-.06.05-.15.03-.1.15-.25.02-.15-.42.34-.38,1.1,0,1.44.44.41,1,.36,1.44,0,.47-.38.66-1.12.45-1.68-.25-.69-1.14-1.05-1.71-.45-.64.67-1.19,1.11-1.98,1.57l1.5,1.15c-.07.17.07-.11.11-.16.04-.07.07-.09,0-.01.05-.06.1-.11.16-.17.01-.01.15-.13.07-.07s.07-.04.08-.05c.05-.03.11-.06.16-.09.14-.08-.22.07.05-.02l-1.26-1.26c-.13.73-.13,1.42,0,2.15.08.43.22.82.6,1.08.44.29.93.18,1.36-.04.55-.27.98-.72,1.36-1.18.45-.54.87-1.1,1.28-1.68l-1.87-.79c.09-.23-.11.15.02-.05l-.07.06c.08-.07.07-.07-.03,0l1.5,1.15c.25-1.12-.33-2.24-1.33-2.77-1.08-.58-2.32-.37-3.44-.03-.49.15-.8.61-.73,1.12.06.48.49.91,1,.89.59-.03,1.17-.06,1.76-.09l-.27-2c-.45.18-.9.36-1.35.54-.5.2-1.05.36-1.45.74-.18.18-.31.38-.42.61-.04.09-.09.17-.13.26-.04.06-.03.06.02-.01-.03.04-.06.07-.1.11-.07.07-.14.14-.21.2-.05.04-.05.04.01,0-.04.03-.08.06-.12.09-.18.12-.36.23-.55.34-.44.26-.61.81-.42,1.27.18.42.73.79,1.2.59l.64-.27c.49-.2.9-.69.71-1.26-.15-.47-.73-.93-1.26-.71h0Z" fill="black"></path>
    <path d="M12.95,7.08c.09.09.17.17.25.27.04.05.08.09.12.14-.06-.08-.04-.06,0,.02.03.05.06.1.09.16-.04-.1-.02-.06-.01.02-.01-.1,0-.1,0,0,.02-.19-.04.05,0-.05.05-.11-.04.05-.05.07-.06.13.09-.11,0,0-.08.1-.17.21-.25.31-.18.22-.36.45-.55.67l1.74.72c-.03.15-.02.17,0,.06-.06.13-.07.15-.01.05.06-.09.05-.08-.03.03.03-.04.06-.08.1-.11.13-.15.28-.29.41-.45.3-.37.51-.8.39-1.28-.06-.22-.17-.41-.33-.57-.08-.08-.17-.14-.26-.19-.22-.11-.13.03.28.42v.54-.04c-.08.15-.17.3-.25.45l.03-.03-1.71-.99c-.24.77.07,1.53.57,2.12s1.18.88,1.93.92c.68.03,1.39-.09,2.05-.26.61-.15,1.25-.37,1.7-.83.59-.6.67-1.5.24-2.21-.36-.59-1.01-.99-1.67-1.14-.59-.13-1.19-.13-1.79-.08-.43.04-.83.12-1.15.43-.3.29-.44.71-.45,1.12,0,.34.06.77.24,1.08.32.54.96.67,1.53.51.79-.22,1.37-.84,1.64-1.61.15-.43-.1-.93-.47-1.15-.76-.46-1.53.04-1.96.68-.31.45-.44,1.01-.47,1.55-.03.58.05,1.3.48,1.73.55.55,1.36.5,2.02.2.44-.2.78-.55,1.13-.87.38-.35.8-.62,1.02-1.1.61-1.32-.35-2.85-1.82-2.83-.53.01-1.05.46-1.02,1.02s.45,1.03,1.02,1.02c.19,0-.11-.05,0-.01.14.05-.22-.12.01,0,.1.05.05.03-.02-.02.18.14-.06-.09,0,.01.06.09-.04-.17,0,.01l-.02-.11c0,.1,0,.11,0,.02.01-.07.01-.08,0-.02-.02.07,0,.05.04-.06-.06.04-.04.09.02,0-.17.22-.43.38-.64.56-.09.08-.18.16-.26.24-.05.05-.1.09-.15.13-.02.02-.2.15-.08.07.11-.08-.03.02-.05.03-.04.02-.12.1-.17.09.1,0,.14-.07,0-.01-.1.04.22,0,0,0,.14,0,.28.08.39.17.16.13.19.35.13.12-.03-.12,0,.19,0,0,0-.07,0-.13-.01-.2s0-.13,0-.2c0-.16-.03.01-.01.03-.02-.03.07-.36.09-.38l-.04.1s.03-.07.05-.1c.03-.06.07-.11.1-.16l-.06.08.05-.06c.1-.09.07-.08-.08.02-.16.07-.18.09-.07.07h-.54l-.13-.06-.47-1.15c-.06.16.01-.04.02-.04,0,0-.07.13-.08.13-.01,0,.15-.15.02-.03-.02.02-.18.16-.06.07s-.25.1-.09.05c.14-.04-.03,0-.05,0-.1.04.22,0,.03-.01l.52.14c.27.47.37.59.31.35-.02-.11-.02-.09,0,.07-.02,0,0-.2,0-.21-.03.16-.03.19,0,.08-.05.17-.14.29-.28.38-.06.04-.31.07-.12.06.36-.01.8-.11,1.16,0-.17-.05-.06,0,.05.02.09.02.18.05.27.08.07.03.05.02-.06-.03.05.02.09.05.14.07.05.03.09.06.13.09l-.08-.06s.08.08.12.12c-.07-.1-.08-.1-.02,0l-.04-.09c.03.12.03.1,0-.03.03-.14.03-.16,0-.05.06-.13.07-.15.03-.09-.04.06-.02.04.05-.07-.08.07-.07.07.04-.02-.04.05-.14.09-.19.12-.04.02-.09.05-.14.07.13-.05.14-.06.03-.02-.2.06-.39.12-.6.17s-.42.09-.63.13c-.12.02-.13.02-.02,0-.07,0-.13.01-.2.02-.1,0-.19.02-.29.02-.12,0-.24,0-.36,0,.18,0,0,0-.08-.02-.11-.04-.11-.04,0,0-.04-.02-.08-.04-.12-.07-.06-.04-.05-.03.02.03-.04-.03-.08-.07-.12-.11-.06-.06-.12-.12-.17-.18.15.19-.04-.09-.06-.14.08.17,0,.03,0-.05.02.14.03.16.02.04-.02.14-.02.16.01.04.13-.41-.08-.95-.47-1.15-.42-.22-.88-.15-1.24.16s-.42.83-.24,1.24c.07.16.15.29.28.41-.04-.04.51.42.22.13l-.26-.45c-.06-.21-.04-.39.08-.53.05-.06.05-.06-.01.01-.05.06-.1.11-.15.17-.09.1-.19.2-.28.31-.31.39-.48.77-.53,1.27-.04.4.29.79.63.93s.86.1,1.11-.21c.24-.29.47-.58.71-.87.29-.36.58-.71.68-1.17.2-.98-.34-1.78-.99-2.45-.37-.38-1.07-.4-1.44,0s-.4,1.04,0,1.44h0Z" fill="black"></path>
  </g>
</svg><style>@media (prefers-color-scheme: light) { :root { filter: contrast(1) brightness(0.1); } }
@media (prefers-color-scheme: dark) { :root { filter: none; } }
</style></svg>