<?xml version="1.0" encoding="UTF-8"?>
<!DOCTYPE svg PUBLIC "-//W3C//DTD SVG 1.1//EN" "http://www.w3.org/Graphics/SVG/1.1/DTD/svg11.dtd">
<!-- Creator: CorelDRAW 2021 (64-Bit) -->
<svg xmlns="http://www.w3.org/2000/svg" xml:space="preserve" width="232.824mm" height="59.7734mm" version="1.1" style="shape-rendering:geometricPrecision; text-rendering:geometricPrecision; image-rendering:optimizeQuality; fill-rule:evenodd; clip-rule:evenodd"
viewBox="0 0 26143.68 6711.93"
 xmlns:xlink="http://www.w3.org/1999/xlink"
 xmlns:xodm="http://www.corel.com/coreldraw/odm/2003">
 <defs>
  <style type="text/css">
   <![CDATA[
    .str1 {stroke:#2B2A29;stroke-width:23.77;stroke-miterlimit:22.9256}
    .str0 {stroke:#2B2A29;stroke-width:22.46;stroke-miterlimit:22.9256}
    .fil2 {fill:none}
    .fil1 {fill:#2B2A29}
    .fil0 {fill:#2B2A29;fill-rule:nonzero}
   ]]>
  </style>
 </defs>
 <g id="Layer_x0020_1">
  <metadata id="CorelCorpID_0Corel-Layer"/>
  <g id="_3129194386656">
   <path class="fil0" d="M16584.99 6590.29c0,21.3 3.13,35.16 9.36,41.59 6.25,6.45 19.22,9.75 39.11,9.75l61.92 0 0 52.48 -390.3 0 0 -52.48 52.9 0c19.88,0 33.34,-3.3 40.24,-9.75 6.89,-6.43 10.35,-20.29 10.35,-41.59l0 -507.54c0,-21.63 -3.46,-35.65 -10.35,-42.25 -6.91,-6.6 -20.37,-9.9 -40.24,-9.9l-52.9 0 0 -51.5 434.65 0c88.87,0 156.22,17.17 202.21,51.66 45.83,34.5 68.82,85 68.82,151.36 0,69.98 -26.78,121.81 -80.16,155.48 -53.38,33.68 -135.68,50.51 -247.05,50.51 -25.62,0 -45.33,-0.17 -59.13,-0.33 -13.81,-0.17 -26.78,-0.34 -38.94,-0.66l-0.49 203.18zm0 -497.31l0 237.19c6.42,1.31 13.64,2.3 21.69,2.81 8.05,0.49 17.25,0.65 27.92,0.65 71.47,0 120.59,-11.22 147.51,-33.66 26.94,-22.29 40.41,-61.74 40.41,-118.18 0,-55.29 -11.82,-94.41 -35.65,-117.19 -23.65,-22.62 -65.37,-34 -125,-34 -33.68,0 -54.86,3.63 -63.74,11.06 -8.7,7.42 -13.15,24.59 -13.15,51.33z"/>
   <path id="_1" class="fil0" d="M17503.61 6350.47l-0.49 239.66c0,19.97 3.29,33.66 9.86,40.76 6.74,7.1 20.03,10.73 39.92,10.73l53.21 0 0 52.48 -380.44 0 0 -52.48 52.89 0c20.21,0 33.69,-3.64 40.41,-10.73 6.74,-7.1 10.2,-20.8 10.2,-40.76l0 -507.38c0,-20.3 -3.46,-34 -10.35,-41.27 -6.91,-7.27 -20.37,-10.89 -40.26,-10.89l-52.89 0 0 -51.5 434.82 0c86.89,0 152.76,15.35 197.6,46.22 44.85,30.7 67.35,75.75 67.35,135.01 0,52.65 -19.37,94.41 -57.99,125.28 -38.59,31.03 -92.47,47.7 -161.8,50.34l0.49 6.77c35.81,0.99 66.86,12.05 92.98,33.34 26.12,21.29 45.5,51.33 58.31,90.28 6.41,19.98 12.98,47.7 19.72,83.2 9.35,51.5 23.82,77.24 43.36,77.24 13.47,0 23.66,-7.76 30.39,-23.43 6.74,-15.69 10.35,-40.11 11.02,-73.62l50.26 0 0 7.59c0,55.46 -14.45,98.53 -43.36,128.91 -28.76,30.53 -69.33,45.71 -121.23,45.71 -35.33,0 -64.89,-5.6 -89.03,-16.83 -23.99,-11.39 -42.05,-28.06 -53.88,-50.34 -12.82,-24.1 -19.39,-62.39 -19.72,-114.55 0,-17 -0.34,-30.04 -0.98,-39.12 -3.46,-58.92 -14.79,-97.38 -33.69,-115.04 -19.06,-17.66 -54.85,-26.58 -107.6,-26.58 -10.34,0 -18.22,0 -23.65,0.17 -5.41,0.17 -10.68,0.49 -15.44,0.83zm0 -265.74l0 213.25c5.42,0.66 11,1.16 16.6,1.49 5.57,0.33 13.79,0.49 24.79,0.49 74.74,0 126.65,-10.24 156.05,-30.7 29.41,-20.47 44.03,-55.79 44.03,-106.14 0,-48.69 -12.15,-83.02 -36.3,-102.82 -24.15,-19.81 -67.35,-29.71 -129.11,-29.71 -33.34,0 -54.37,3.13 -63.08,9.41 -8.7,6.27 -12.97,21.29 -12.97,44.72z"/>
   <path id="_2" class="fil0" d="M18415.48 6336.77c0,108.76 14.29,189.15 42.87,241.31 28.59,52.32 72.45,78.4 131.91,78.4 58.64,0 102.51,-26.41 131.58,-79.23 29.07,-52.98 43.52,-133.03 43.52,-240.48 0,-108.61 -14.28,-189.15 -43.03,-241.48 -28.76,-52.33 -72.77,-78.57 -132.08,-78.57 -59.13,0 -102.99,26.41 -131.74,79.06 -28.75,52.65 -43.04,133.04 -43.04,240.98zm-197.11 0c0,-53.15 8.55,-102.34 25.47,-147.56 17.08,-45.39 42.04,-85.17 75.07,-119.67 34.65,-36.47 74.41,-63.54 119.25,-81.38 44.68,-17.99 95.28,-26.9 151.78,-26.9 58.48,0 109.73,8.92 154.08,26.9 44.19,17.83 84.1,45.56 119.75,83.35 32.19,33.84 56.67,73.29 73.43,118.35 16.92,45.05 25.3,94.08 25.3,146.9 0,54.8 -7.73,102.82 -23.17,143.92 -15.28,40.94 -39.92,79.06 -73.59,114.22 -36.63,38.29 -78.02,67.34 -124.34,86.82 -46.49,19.47 -96.93,29.21 -151.46,29.21 -55.53,0 -105.45,-9.24 -149.97,-27.72 -44.35,-18.65 -85.09,-47.37 -121.89,-86.33 -34.65,-35.48 -59.95,-73.94 -75.87,-115.53 -15.95,-41.59 -23.83,-89.79 -23.83,-144.58z"/>
   <path id="_3" class="fil0" d="M19536.79 5979.09c138.81,0 242.78,29.71 311.94,89.12 69.16,59.59 103.65,149.05 103.65,268.55 0,113.56 -33.02,201.36 -98.89,263.76 -65.86,62.39 -159.01,93.58 -279.24,93.58l-385.7 0 0 -52.48 52.9 0c19.88,0 33.34,-3.3 40.24,-9.75 6.89,-6.43 10.35,-20.29 10.35,-41.59l0 -507.37c0,-21.63 -3.46,-35.82 -10.35,-42.42 -6.91,-6.6 -20.37,-9.9 -40.24,-9.9l-52.9 0 0 -51.5 348.24 0zm-67.34 97.87l0 516.3c0,17.99 2.95,30.21 8.86,36.31 5.92,6.11 17.91,9.07 35.82,9.07l67.83 0c65.05,0 111.71,-23.27 139.79,-70.15 28.25,-46.71 42.39,-124.62 42.39,-233.55 0,-114.22 -15.79,-193.44 -47.15,-237.84 -31.38,-44.4 -87.56,-66.52 -168.7,-66.52l-34.16 0c-17.91,0 -29.9,3.13 -35.82,9.41 -5.91,6.27 -8.86,18.65 -8.86,36.97z"/>
   <path id="_4" class="fil0" d="M20555.77 5979.09l0 51.5 -49.12 0c-19.88,0 -33.18,3.47 -40.08,10.23 -6.91,6.77 -10.35,20.8 -10.35,41.93l0 361.8c0,66.18 13.79,114.22 41.22,144.09 27.44,30.05 71.29,45.06 131.58,45.06 26.29,0 50.44,-3.63 72.61,-10.89 22.18,-7.27 40.58,-17.49 55.35,-30.7 18.08,-16.17 30.72,-36.64 38.12,-61.4 7.39,-24.93 10.99,-67.34 10.99,-127.75l0 -259.64c0,-43.24 -7.55,-72.79 -22.83,-88.8 -15.27,-16 -41.88,-23.93 -79.83,-23.93l-6.74 0 0 -51.5 271.03 0 0 51.5c-36.12,3.3 -61.27,12.54 -75.4,28.06 -14.13,15.52 -21.19,43.74 -21.19,84.67l0 268.38c0,56.77 -2.62,97.55 -7.87,122.63 -5.42,24.93 -14.46,47.05 -27.28,66.35 -24.47,37.8 -58.15,65.7 -101.18,84.02 -42.87,18.16 -96.76,27.23 -161.3,27.23 -96.59,0 -169.52,-20.13 -218.8,-60.4 -49.28,-40.28 -73.93,-100.03 -73.93,-179.42l0 -389.36c0,-21.13 -3.45,-35.16 -10.34,-41.93 -6.89,-6.76 -20.21,-10.23 -40.09,-10.23l-50.1 0 0 -51.5 375.52 0z"/>
   <path id="_5" class="fil0" d="M21175.9 6694.11l0 -52.48 49.12 0c19.88,0 33.18,-3.3 40.09,-9.75 6.89,-6.43 10.34,-20.29 10.34,-41.59l0 -507.37c0,-21.63 -3.45,-35.82 -10.34,-42.42 -6.91,-6.6 -20.21,-9.9 -40.09,-9.9l-49.12 0 0 -51.5 372.54 0 0 51.5 -48.12 0c-19.89,0 -33.19,3.47 -40.09,10.23 -6.89,6.77 -10.34,20.8 -10.34,42.1l0 268.37 223.73 -240.32c9.53,-10.4 15.93,-18.65 18.89,-24.75 3.12,-6.11 4.6,-12.39 4.6,-18.82 0,-12.39 -5.59,-21.46 -16.92,-27.57 -11.17,-6.11 -27.43,-9.24 -48.95,-9.24l-28.42 0 0 -51.5 330.98 0 0 51c-31.7,0.66 -59.61,6.43 -83.77,17.49 -23.99,10.89 -50.26,31.03 -78.85,60.41l-121.23 124.78 231.45 372.53c8.05,12.22 17.25,21.46 27.93,27.4 10.51,5.94 23.17,8.92 37.62,8.92l13.46 0 0 52.48 -357.6 0 0 -52.48 26.44 0c18.24,0 32.04,-1.99 41.39,-5.78 9.36,-3.96 13.97,-9.9 13.97,-17.99 0,-7.1 -5.42,-19.31 -16.43,-36.64l-0.49 -0.99 -136.99 -224.48 -80.81 86.98 0 147.56c0,21.95 3.28,35.99 9.85,42.1 6.57,6.1 19.89,9.24 39.75,9.24l48.95 0 0 52.48 -372.54 0z"/>
   <path id="_6" class="fil0" d="M22776.69 6248.47c-9.03,-69.5 -27.76,-123.96 -56.18,-163.4 -28.42,-39.62 -62.92,-59.42 -103.47,-59.42 -17.42,0 -29.08,3.47 -35.16,10.23 -6.09,6.77 -9.2,20.14 -9.2,40.11l0 514.31c0,21.3 3.45,35.16 10.17,41.59 6.74,6.45 20.05,9.75 40.09,9.75l48.3 0 0 52.48 -373.54 0 0 -52.48 49.61 0c19.55,0 32.52,-3.14 39.09,-9.41 6.58,-6.28 9.86,-20.3 9.86,-41.93l0 -514.31c0,-20.3 -2.95,-33.83 -8.86,-40.44 -5.93,-6.6 -17.42,-9.9 -34.5,-9.9 -40.41,0 -74.74,19.81 -103.16,59.42 -28.42,39.45 -47.15,93.91 -56.52,163.4l-49.27 0 15.44 -269.37 649.83 0 15.77 269.37 -48.3 0z"/>
   <path id="_7" class="fil0" d="M23425.56 5979.09l0 51.5 -56.34 0c-19.21,0 -32.19,3.3 -38.93,9.9 -6.74,6.6 -10.18,20.8 -10.18,42.42l0 507.37c0,21.63 3.29,35.65 9.85,41.93 6.57,6.27 19.72,9.41 39.27,9.41l56.34 0 0 52.48 -387.33 0 0 -52.48 54.37 0c19.88,0 33.19,-3.3 39.92,-9.75 6.74,-6.43 10.18,-20.29 10.18,-41.59l0 -507.37c0,-21.63 -3.45,-35.82 -10.18,-42.42 -6.73,-6.6 -20.04,-9.9 -39.92,-9.9l-54.37 0 0 -51.5 387.33 0z"/>
   <path id="_8" class="fil0" d="M23856.3 6336.77c0,108.76 14.29,189.15 42.86,241.31 28.59,52.32 72.45,78.4 131.92,78.4 58.64,0 102.5,-26.41 131.57,-79.23 29.07,-52.98 43.53,-133.03 43.53,-240.48 0,-108.61 -14.29,-189.15 -43.04,-241.48 -28.75,-52.33 -72.77,-78.57 -132.06,-78.57 -59.14,0 -103,26.41 -131.75,79.06 -28.73,52.65 -43.03,133.04 -43.03,240.98zm-197.12 0c0,-53.15 8.55,-102.34 25.47,-147.56 17.08,-45.39 42.04,-85.17 75.07,-119.67 34.65,-36.47 74.41,-63.54 119.25,-81.38 44.69,-17.99 95.28,-26.9 151.78,-26.9 58.48,0 109.73,8.92 154.08,26.9 44.19,17.83 84.1,45.56 119.76,83.35 32.19,33.84 56.66,73.29 73.41,118.35 16.92,45.05 25.3,94.08 25.3,146.9 0,54.8 -7.71,102.82 -23.17,143.92 -15.27,40.94 -39.92,79.06 -73.58,114.22 -36.63,38.29 -78.03,67.34 -124.35,86.82 -46.49,19.47 -96.92,29.21 -151.46,29.21 -55.52,0 -105.45,-9.24 -149.97,-27.72 -44.35,-18.65 -85.08,-47.37 -121.89,-86.33 -34.65,-35.48 -59.95,-73.94 -75.87,-115.53 -15.93,-41.59 -23.83,-89.79 -23.83,-144.58z"/>
   <path id="_9" class="fil0" d="M24628.39 6694.11l0 -51.5c40.41,-3.8 68,-14.04 82.63,-30.53 14.61,-16.35 21.84,-48.86 21.84,-97.56l0 -429.8 -18.73 -19.3c-13.14,-14.86 -24.96,-24.43 -35.48,-28.56 -10.34,-4.13 -23.65,-6.28 -39.58,-6.28l-10.68 0 0 -51.5 248.37 0 375.51 445.49 0 -267.4c0,-51.17 -8.05,-85 -24.15,-101.51 -16.09,-16.34 -47.14,-24.76 -93.13,-25.09l-0.49 -51.5 290.26 0 0 51.5c-39.75,1.98 -66.7,11.06 -80.66,27.57 -13.97,16.51 -20.86,49.51 -20.86,99.03l0 546.83 -62.08 0 -464.22 -552.6 0 363.11c0,49.69 8.05,83.03 24.31,100.35 16.09,17.17 46.16,26.41 90.02,27.74l0 51.5 -282.87 0z"/>
   <path class="fil0" d="M10606.96 5979.09c138.8,0 242.78,29.71 311.94,89.12 69.15,59.59 103.65,149.05 103.65,268.55 0,113.56 -33.02,201.36 -98.89,263.76 -65.87,62.39 -159.01,93.58 -279.25,93.58l-385.69 0 0 -52.48 52.89 0c19.89,0 33.35,-3.3 40.26,-9.75 6.89,-6.43 10.34,-20.29 10.34,-41.59l0 -507.37c0,-21.63 -3.45,-35.82 -10.34,-42.42 -6.91,-6.6 -20.37,-9.9 -40.26,-9.9l-52.89 0 0 -51.5 348.24 0zm-67.35 97.87l0 516.3c0,17.99 2.95,30.21 8.87,36.31 5.91,6.11 17.91,9.07 35.81,9.07l67.83 0c65.05,0 111.71,-23.27 139.79,-70.15 28.25,-46.71 42.39,-124.62 42.39,-233.55 0,-114.22 -15.78,-193.44 -47.15,-237.84 -31.37,-44.4 -87.55,-66.52 -168.69,-66.52l-34.17 0c-17.9,0 -29.9,3.13 -35.81,9.41 -5.92,6.27 -8.87,18.65 -8.87,36.97z"/>
   <path id="_1_0" class="fil0" d="M11528.36 6350.47l-0.49 239.66c0,19.97 3.29,33.66 9.86,40.76 6.74,7.1 20.03,10.73 39.92,10.73l53.21 0 0 52.48 -380.44 0 0 -52.48 52.89 0c20.21,0 33.69,-3.64 40.41,-10.73 6.74,-7.1 10.2,-20.8 10.2,-40.76l0 -507.38c0,-20.3 -3.46,-34 -10.35,-41.27 -6.91,-7.27 -20.37,-10.89 -40.26,-10.89l-52.89 0 0 -51.5 434.82 0c86.88,0 152.76,15.35 197.6,46.22 44.85,30.7 67.35,75.75 67.35,135.01 0,52.65 -19.38,94.41 -57.99,125.28 -38.59,31.03 -92.47,47.7 -161.8,50.34l0.49 6.77c35.81,0.99 66.85,12.05 92.98,33.34 26.12,21.29 45.5,51.33 58.31,90.28 6.41,19.98 12.98,47.7 19.72,83.2 9.35,51.5 23.82,77.24 43.36,77.24 13.46,0 23.66,-7.76 30.39,-23.43 6.74,-15.69 10.35,-40.11 11.02,-73.62l50.26 0 0 7.59c0,55.46 -14.45,98.53 -43.36,128.91 -28.76,30.53 -69.33,45.71 -121.23,45.71 -35.33,0 -64.89,-5.6 -89.03,-16.83 -23.99,-11.39 -42.05,-28.06 -53.88,-50.34 -12.82,-24.1 -19.39,-62.39 -19.72,-114.55 0,-17 -0.34,-30.04 -0.98,-39.12 -3.46,-58.92 -14.79,-97.38 -33.69,-115.04 -19.06,-17.66 -54.85,-26.58 -107.6,-26.58 -10.34,0 -18.22,0 -23.65,0.17 -5.41,0.17 -10.68,0.49 -15.44,0.83zm0 -265.74l0 213.25c5.42,0.66 11,1.16 16.6,1.49 5.57,0.33 13.79,0.49 24.79,0.49 74.74,0 126.65,-10.24 156.05,-30.7 29.41,-20.47 44.03,-55.79 44.03,-106.14 0,-48.69 -12.15,-83.02 -36.3,-102.82 -24.15,-19.81 -67.35,-29.71 -129.11,-29.71 -33.34,0 -54.37,3.13 -63.08,9.41 -8.7,6.27 -12.97,21.29 -12.97,44.72z"/>
   <path id="_2_1" class="fil0" d="M12619.6 5979.09l0 51.5 -56.32 0c-19.22,0 -32.2,3.3 -38.94,9.9 -6.74,6.6 -10.17,20.8 -10.17,42.42l0 507.37c0,21.63 3.28,35.65 9.84,41.93 6.58,6.27 19.72,9.41 39.28,9.41l56.32 0 0 52.48 -387.33 0 0 -52.48 54.37 0c19.89,0 33.19,-3.3 39.92,-9.75 6.74,-6.43 10.2,-20.29 10.2,-41.59l0 -507.37c0,-21.63 -3.46,-35.82 -10.2,-42.42 -6.73,-6.6 -20.03,-9.9 -39.92,-9.9l-54.37 0 0 -51.5 387.33 0z"/>
   <path id="_3_2" class="fil0" d="M13481.04 5979.09l7.88 257.48 -48.28 0c-18.56,-75.1 -46.98,-127.91 -84.94,-158.28 -38.11,-30.53 -95.1,-45.72 -171.16,-45.72 -32.36,0 -52.39,3.3 -60.28,10.07 -7.88,6.77 -11.84,21.29 -11.84,43.58l0 211.76 13.97 0c42.55,0 74.4,-10.23 95.28,-30.7 21.02,-20.46 35.8,-56.11 44.5,-106.96l49.28 0 0 327.81 -49.28 0c-8.7,-50.18 -23.48,-85.5 -44.5,-105.97 -20.87,-20.47 -52.73,-30.7 -95.28,-30.7l-13.97 0 0 238.83c0,21.63 3.46,35.65 10.2,41.93 6.73,6.27 19.86,9.41 39.41,9.41l70.64 0 0 52.48 -395.23 0 0 -52.48 50.1 0c19.88,0 33.17,-3.3 40.08,-9.75 6.91,-6.43 10.35,-20.29 10.35,-41.59l0 -507.37c0,-21.63 -3.45,-35.82 -10.35,-42.42 -6.91,-6.6 -20.2,-9.9 -40.08,-9.9l-50.1 0 0 -51.5 643.59 0z"/>
   <path id="_4_3" class="fil0" d="M14345.76 6248.47c-9.03,-69.5 -27.76,-123.96 -56.18,-163.4 -28.42,-39.62 -62.92,-59.42 -103.49,-59.42 -17.4,0 -29.07,3.47 -35.16,10.23 -6.07,6.77 -9.2,20.14 -9.2,40.11l0 514.31c0,21.3 3.46,35.16 10.18,41.59 6.74,6.45 20.04,9.75 40.09,9.75l48.3 0 0 52.48 -373.54 0 0 -52.48 49.61 0c19.55,0 32.52,-3.14 39.09,-9.41 6.57,-6.28 9.86,-20.3 9.86,-41.93l0 -514.31c0,-20.3 -2.95,-33.83 -8.86,-40.44 -5.93,-6.6 -17.42,-9.9 -34.5,-9.9 -40.41,0 -74.74,19.81 -103.16,59.42 -28.42,39.45 -47.15,93.91 -56.52,163.4l-49.27 0 15.43 -269.37 649.84 0 15.77 269.37 -48.3 0z"/>
   <path class="fil0" d="M117.14 6705.99l-9.08 -287.19 50.51 0c28.39,78.4 65.53,137.98 111.74,178.59 46.05,40.77 99.2,61.07 159.45,61.07 43.24,0 77.08,-10.4 101.84,-31.03 24.59,-20.64 36.97,-48.86 36.97,-84.68 0,-15.84 -3.3,-30.37 -9.9,-43.58 -6.59,-13.19 -15.51,-23.93 -26.89,-32.01 -16.68,-11.55 -57.94,-25.09 -123.63,-40.6 -24.27,-5.78 -43.07,-10.4 -56.62,-14.02 -88.46,-21.8 -151.85,-50.51 -189.65,-86 -37.8,-35.32 -56.77,-82.86 -56.77,-142.44 0,-64.53 23.76,-117.68 71.3,-159.78 47.53,-42.09 108.44,-63.05 182.87,-63.05 33.51,0 65.53,4.46 96.23,13.21 30.53,8.92 60.24,22.29 88.96,40.28l49.85 -48.53 43.41 0 12.05 261.46 -46.54 0c-35.16,-76.1 -71.97,-131.05 -110.26,-164.56 -38.46,-33.51 -83.18,-50.34 -134.51,-50.34 -41.93,0 -74.45,9.4 -97.71,28.39 -23.28,18.81 -34.83,45.06 -34.83,78.56 0,48.7 56.29,85.51 168.69,110.26 20.95,4.63 36.81,8.1 47.86,10.73 53.48,12.22 92.27,23.77 116.04,34.82 23.93,10.89 44.4,24.76 61.56,41.59 19.98,19.31 35.33,43.09 46.22,71.47 10.73,28.39 16.18,59.26 16.18,92.76 0,70.32 -23.28,126.1 -69.65,167.52 -46.39,41.43 -109.27,62.06 -188.66,62.06 -41.93,0 -79.39,-5.11 -112.4,-15.35 -33.01,-10.4 -64.21,-26.57 -93.59,-48.69l-58.42 59.09 -42.58 0z"/>
   <path id="_1_4" class="fil0" d="M1316.29 5979.09l0 51.5 -56.61 0c-19.31,0 -32.35,3.3 -39.12,9.9 -6.77,6.6 -10.23,20.8 -10.23,42.42l0 507.37c0,21.63 3.3,35.65 9.89,41.93 6.6,6.27 19.81,9.41 39.46,9.41l56.61 0 0 52.48 -389.2 0 0 -52.48 54.63 0c19.98,0 33.35,-3.3 40.11,-9.75 6.77,-6.43 10.24,-20.29 10.24,-41.59l0 -507.37c0,-21.63 -3.47,-35.82 -10.24,-42.42 -6.76,-6.6 -20.13,-9.9 -40.11,-9.9l-54.63 0 0 -51.5 389.2 0z"/>
   <path id="_2_5" class="fil0" d="M1535.19 6694.11l0 -52.48 49.35 0c19.98,0 33.34,-3.3 40.28,-9.75 6.93,-6.43 10.4,-20.29 10.4,-41.59l0 -507.37c0,-21.63 -3.47,-35.82 -10.4,-42.42 -6.94,-6.6 -20.3,-9.9 -40.28,-9.9l-49.35 0 0 -51.5 374.34 0 0 51.5 -48.35 0c-19.98,0 -33.35,3.47 -40.28,10.23 -6.93,6.77 -10.4,20.8 -10.4,42.1l0 268.37 224.8 -240.32c9.58,-10.4 16.01,-18.65 18.98,-24.75 3.14,-6.11 4.63,-12.39 4.63,-18.82 0,-12.39 -5.61,-21.46 -17,-27.57 -11.23,-6.11 -27.57,-9.24 -49.18,-9.24l-28.56 0 0 -51.5 332.58 0 0 51c-31.86,0.66 -59.91,6.43 -84.17,17.49 -24.1,10.89 -50.51,31.03 -79.23,60.41l-121.81 124.78 232.56 372.53c8.1,12.22 17.34,21.46 28.06,27.4 10.57,5.94 23.28,8.92 37.8,8.92l13.53 0 0 52.48 -359.32 0 0 -52.48 26.57 0c18.33,0 32.19,-1.99 41.59,-5.78 9.41,-3.96 14.04,-9.9 14.04,-17.99 0,-7.1 -5.45,-19.31 -16.51,-36.64l-0.49 -0.99 -137.66 -224.48 -81.21 86.98 0 147.56c0,21.95 3.3,35.99 9.9,42.1 6.6,6.1 19.98,9.24 39.94,9.24l49.18 0 0 52.48 -374.34 0z"/>
   <path id="_3_6" class="fil0" d="M2514.83 6694.11l0 -52.48 49.35 0c19.98,0 33.34,-3.3 40.28,-9.75 6.93,-6.43 10.4,-20.29 10.4,-41.59l0 -507.37c0,-21.63 -3.47,-35.82 -10.4,-42.42 -6.94,-6.6 -20.3,-9.9 -40.28,-9.9l-49.35 0 0 -51.5 374.34 0 0 51.5 -48.35 0c-19.98,0 -33.35,3.47 -40.28,10.23 -6.93,6.77 -10.4,20.8 -10.4,42.1l0 268.37 224.8 -240.32c9.58,-10.4 16.01,-18.65 18.98,-24.75 3.14,-6.11 4.63,-12.39 4.63,-18.82 0,-12.39 -5.61,-21.46 -17,-27.57 -11.23,-6.11 -27.57,-9.24 -49.18,-9.24l-28.56 0 0 -51.5 332.58 0 0 51c-31.86,0.66 -59.91,6.43 -84.17,17.49 -24.1,10.89 -50.51,31.03 -79.23,60.41l-121.81 124.78 232.56 372.53c8.1,12.22 17.34,21.46 28.06,27.4 10.57,5.94 23.28,8.92 37.8,8.92l13.53 0 0 52.48 -359.32 0 0 -52.48 26.57 0c18.33,0 32.19,-1.99 41.59,-5.78 9.41,-3.96 14.04,-9.9 14.04,-17.99 0,-7.1 -5.45,-19.31 -16.51,-36.64l-0.49 -0.99 -137.66 -224.48 -81.21 86.98 0 147.56c0,21.95 3.3,35.99 9.9,42.1 6.6,6.1 19.98,9.24 39.94,9.24l49.18 0 0 52.48 -374.34 0z"/>
   <path id="_4_7" class="fil0" d="M3495.45 6694.11l0 -52.48 49.35 0c19.98,0 33.34,-3.3 40.28,-9.75 6.93,-6.43 10.4,-20.29 10.4,-41.59l0 -507.37c0,-21.63 -3.47,-35.82 -10.4,-42.42 -6.94,-6.6 -20.3,-9.9 -40.28,-9.9l-49.35 0 0 -51.5 645.7 0 7.92 257.48 -48.52 0c-17.34,-76.09 -45.39,-129.56 -83.85,-160.6 -38.63,-30.86 -96.4,-46.38 -173.48,-46.38 -32.52,0 -52.65,3.47 -60.57,10.23 -7.93,6.77 -11.89,21.13 -11.89,43.09l0 215.06 14.04 0c42.75,0 74.76,-10.23 95.73,-30.7 21.13,-20.46 35.98,-56.11 44.72,-106.96l49.52 0 0 327.81 -49.52 0c-8.75,-50.18 -23.59,-85.5 -44.72,-105.97 -20.96,-20.47 -52.98,-30.7 -95.73,-30.7l-14.04 0 0 238.83c0,21.95 4.29,36.48 12.88,43.41 8.41,6.94 29.37,10.4 62.56,10.4 84,0 146.9,-16.83 188.49,-50.17 41.76,-33.34 72.29,-90.79 91.61,-172.15l49.52 3.8 -13.05 268.54 -667.31 0z"/>
   <path id="_5_8" class="fil0" d="M4694.78 6350.47l-0.49 239.66c0,19.97 3.3,33.66 9.9,40.76 6.77,7.1 20.13,10.73 40.11,10.73l53.47 0 0 52.48 -382.27 0 0 -52.48 53.15 0c20.3,0 33.84,-3.64 40.6,-10.73 6.77,-7.1 10.24,-20.8 10.24,-40.76l0 -507.38c0,-20.3 -3.47,-34 -10.4,-41.27 -6.94,-7.27 -20.47,-10.89 -40.45,-10.89l-53.15 0 0 -51.5 436.91 0c87.31,0 153.5,15.35 198.55,46.22 45.06,30.7 67.68,75.75 67.68,135.01 0,52.65 -19.47,94.41 -58.27,125.28 -38.78,31.03 -92.92,47.7 -162.57,50.34l0.49 6.77c35.98,0.99 67.17,12.05 93.42,33.34 26.24,21.29 45.71,51.33 58.59,90.28 6.43,19.98 13.04,47.7 19.81,83.2 9.4,51.5 23.93,77.24 43.57,77.24 13.53,0 23.77,-7.76 30.53,-23.43 6.77,-15.69 10.4,-40.11 11.06,-73.62l50.51 0 0 7.59c0,55.46 -14.52,98.53 -43.57,128.91 -28.89,30.53 -69.65,45.71 -121.81,45.71 -35.49,0 -65.2,-5.6 -89.46,-16.83 -24.1,-11.39 -42.25,-28.06 -54.13,-50.34 -12.88,-24.1 -19.48,-62.39 -19.81,-114.55 0,-17 -0.34,-30.04 -0.99,-39.12 -3.47,-58.92 -14.86,-97.38 -33.84,-115.04 -19.15,-17.66 -55.12,-26.58 -108.11,-26.58 -10.4,0 -18.31,0 -23.76,0.17 -5.45,0.17 -10.73,0.49 -15.52,0.83zm0 -265.74l0 213.25c5.45,0.66 11.06,1.16 16.68,1.49 5.6,0.33 13.86,0.49 24.92,0.49 75.1,0 127.26,-10.24 156.8,-30.7 29.54,-20.47 44.24,-55.79 44.24,-106.14 0,-48.69 -12.22,-83.02 -36.48,-102.82 -24.27,-19.81 -67.68,-29.71 -129.73,-29.71 -33.51,0 -54.64,3.13 -63.39,9.41 -8.75,6.27 -13.04,21.29 -13.04,44.72z"/>
   <path id="_6_9" class="fil0" d="M5837.82 6641.63l49.86 0c19.64,0 32.68,-3.14 39.28,-9.41 6.6,-6.28 9.9,-20.3 9.9,-41.93l0 -232.89 -262.44 0 0 232.89c0,21.3 3.47,35.16 10.4,41.59 6.94,6.45 20.3,9.75 40.28,9.75l49.35 0 0 52.48 -377.32 0 0 -52.48 50.34 0c19.98,0 33.18,-3.14 39.78,-9.41 6.6,-6.28 9.9,-20.3 9.9,-41.93l0 -507.54c0,-21.63 -3.3,-35.65 -10.07,-42.25 -6.77,-6.6 -19.98,-9.9 -39.62,-9.9l-50.34 0 0 -51.5 377.32 0 0 51.5 -49.35 0c-19.64,0 -33.01,3.3 -40.11,10.07 -7.1,6.76 -10.57,20.8 -10.57,42.09l0 210.27 262.44 0 0 -210.27c0,-21.63 -3.3,-35.65 -10.07,-42.25 -6.76,-6.6 -19.81,-9.9 -39.11,-9.9l-49.86 0 0 -51.5 377.32 0 0 51.5 -50.67 0c-19.48,0 -32.52,3.3 -39.29,9.9 -6.76,6.6 -10.06,20.63 -10.06,42.25l0 507.54c0,21.63 3.3,35.65 9.9,41.93 6.6,6.27 19.81,9.41 39.45,9.41l50.67 0 0 52.48 -377.32 0 0 -52.48z"/>
   <path id="_7_10" class="fil0" d="M6431.4 6694.11l0 -52.48 49.35 0c19.98,0 33.34,-3.3 40.28,-9.75 6.93,-6.43 10.4,-20.29 10.4,-41.59l0 -507.37c0,-21.63 -3.47,-35.82 -10.4,-42.42 -6.94,-6.6 -20.3,-9.9 -40.28,-9.9l-49.35 0 0 -51.5 645.7 0 7.92 257.48 -48.52 0c-17.34,-76.09 -45.39,-129.56 -83.85,-160.6 -38.63,-30.86 -96.4,-46.38 -173.48,-46.38 -32.52,0 -52.65,3.47 -60.57,10.23 -7.93,6.77 -11.89,21.13 -11.89,43.09l0 215.06 14.04 0c42.75,0 74.76,-10.23 95.73,-30.7 21.13,-20.46 35.98,-56.11 44.72,-106.96l49.52 0 0 327.81 -49.52 0c-8.75,-50.18 -23.59,-85.5 -44.72,-105.97 -20.96,-20.47 -52.98,-30.7 -95.73,-30.7l-14.04 0 0 238.83c0,21.95 4.29,36.48 12.88,43.41 8.41,6.94 29.37,10.4 62.56,10.4 84,0 146.9,-16.83 188.49,-50.17 41.76,-33.34 72.29,-90.79 91.61,-172.15l49.52 3.8 -13.05 268.54 -667.31 0z"/>
   <path id="_8_11" class="fil0" d="M7701.37 5979.09c139.47,0 243.95,29.71 313.45,89.12 69.48,59.59 104.15,149.05 104.15,268.55 0,113.56 -33.18,201.36 -99.37,263.76 -66.18,62.39 -159.78,93.58 -280.59,93.58l-387.56 0 0 -52.48 53.15 0c19.98,0 33.51,-3.3 40.45,-9.75 6.93,-6.43 10.4,-20.29 10.4,-41.59l0 -507.37c0,-21.63 -3.47,-35.82 -10.4,-42.42 -6.94,-6.6 -20.47,-9.9 -40.45,-9.9l-53.15 0 0 -51.5 349.92 0zm-67.67 97.87l0 516.3c0,17.99 2.96,30.21 8.9,36.31 5.94,6.11 18,9.07 35.99,9.07l68.16 0c65.36,0 112.24,-23.27 140.46,-70.15 28.39,-46.71 42.59,-124.62 42.59,-233.55 0,-114.22 -15.86,-193.44 -47.37,-237.84 -31.53,-44.4 -87.98,-66.52 -169.51,-66.52l-34.33 0c-17.99,0 -30.05,3.13 -35.99,9.41 -5.94,6.27 -8.9,18.65 -8.9,36.97z"/>
   <path class="fil0" d="M15447.7 0l57.91 1169.11 -79.62 3.62c-30.16,-199.08 -80.84,-363.16 -152.03,-493.46 -71.18,-129.1 -173.73,-244.93 -307.65,-343.86 -111,-82.04 -242.51,-141.16 -393.33,-174.94 -150.82,-34.99 -352.3,-51.88 -602.04,-51.88l-810.78 0 0 2128.28 213.55 0c215.97,0 377.63,-14.49 486.23,-42.23 109.79,-28.96 197.87,-78.42 266.63,-152.02 66.36,-67.56 115.83,-148.4 148.4,-241.3 31.37,-92.91 57.91,-230.45 79.62,-411.43l79.64 3.63 -14.47 1893.01 -79.64 0c-21.72,-182.19 -53.09,-328.18 -94.11,-439.18 -41.02,-111 -98.93,-205.1 -172.53,-282.32 -71.18,-76.01 -162.88,-131.51 -277.49,-166.5 -113.41,-34.99 -258.2,-53.08 -433.13,-53.08l-202.69 0 0 809.56c0,322.14 8.44,557.41 25.33,704.61 15.69,147.19 48.26,270.26 95.31,369.19 80.84,168.92 203.91,293.19 369.2,372.81 165.29,78.42 383.67,118.24 653.93,118.24 282.32,0 518.8,-36.2 709.42,-107.38 190.63,-72.39 345.07,-183.39 465.71,-334.2 84.46,-101.35 153.23,-217.18 206.32,-346.28 51.88,-129.09 101.34,-300.42 145.99,-512.76l79.62 3.62 -43.43 1405.58 -4220.37 0 0 -79.62c135.13,-7.24 244.93,-26.55 328.18,-56.71 84.45,-30.17 159.26,-79.64 225.61,-148.4 73.59,-76.01 124.27,-172.53 150.82,-288.36 27.75,-117.03 41.02,-295.59 41.02,-536.89l0 -2608.48c0,-241.3 -13.27,-419.86 -41.02,-536.9 -26.55,-117.03 -77.22,-212.34 -150.82,-288.35 -63.95,-68.78 -137.54,-118.24 -222,-148.4 -83.25,-30.16 -194.25,-49.46 -331.79,-56.71l0 -79.64 3800.51 0z"/>
   <path class="fil0" d="M1512.97 2309.26l0 1410.41c0,240.1 13.27,417.45 38.61,532.07 26.55,114.61 76.01,211.14 149.6,288.35 63.95,68.78 138.76,118.24 225.62,150.82 85.65,31.37 196.66,50.68 331.78,57.92l0 79.62 -2258.58 0 0 -79.62c113.41,0 220.8,-18.1 323.35,-54.3 101.34,-37.39 180.98,-85.65 237.68,-147.19 66.35,-73.59 113.41,-173.73 142.36,-301.63 27.76,-126.67 42.23,-302.82 42.23,-527.23l0 -2608.48c0,-150.82 -8.44,-307.66 -25.33,-470.54 -22.93,-208.72 -125.48,-363.16 -305.25,-464.51 -98.94,-54.29 -237.68,-85.67 -415.04,-95.31l0 -79.64 3699.16 0 101.35 1151.01 -79.64 18.1c-59.12,-179.78 -113.41,-314.9 -162.88,-404.19 -112.2,-206.31 -267.84,-365.57 -469.34,-478.98 -115.82,-66.35 -249.74,-112.2 -400.56,-138.75 -152.02,-25.34 -359.54,-38.61 -624.97,-38.61l-550.16 0 0 2092.08 142.36 0c419.87,0 725.12,-92.9 915.74,-278.7 83.25,-79.62 145.99,-174.95 188.22,-284.73 43.43,-108.58 71.18,-252.16 85.65,-428.32l79.64 3.63 -21.72 2139.14 -79.64 0c-26.55,-240.1 -71.18,-425.9 -133.92,-556.2 -62.74,-131.5 -159.26,-236.47 -287.15,-316.11 -95.32,-59.12 -212.35,-102.55 -352.31,-129.09 -138.75,-27.76 -317.31,-41.03 -536.89,-41.03z"/>
   <path class="fil0" d="M15215.07 2030.45l1352.16 0 0 46.14c-102.07,9.79 -176.18,25.18 -220.93,47.54 -42.65,20.28 -76.91,51.74 -102.78,95.09 -25.86,43.34 -39.14,90.19 -39.14,140.53 0,35.65 3.49,67.12 10.48,94.38 7,27.97 27.28,87.39 61.53,178.99l606.86 1649.99 588.69 -1447.24c81.79,-203.46 123.05,-352.38 123.05,-445.36 0,-51.73 -8.39,-100.68 -24.47,-145.42 -16.79,-45.44 -38.46,-80.41 -65.72,-104.88 -27.26,-23.08 -57.34,-39.85 -90.19,-48.94 -32.86,-9.79 -75.5,-14.69 -127.25,-14.69l0 -46.14 910.3 0 0 46.14c-74.81,7 -140.53,25.18 -195.77,55.24 -55.24,30.06 -108.37,76.21 -158.71,137.73 -34.26,44.04 -69.91,103.47 -107.66,179.67 -37.75,75.51 -88.8,192.97 -154.51,351.68l-838.98 2027.53 -88.09 0 -813.82 -2094.65c-106.27,-275.47 -192.26,-449.56 -255.89,-523.67 -41.24,-46.84 -91.58,-80.4 -151.02,-101.38 -59.42,-21.67 -132.13,-32.16 -218.13,-32.16l0 -46.14z"/>
   <path id="_1_12" class="fil0" d="M20222.39 2030.45l33.55 677.48 -46.14 2.1c-17.47,-115.37 -46.85,-210.45 -88.09,-285.96 -41.26,-74.81 -100.68,-141.92 -178.28,-199.26 -64.32,-47.54 -140.53,-81.8 -227.93,-101.38 -87.39,-20.28 -204.15,-30.06 -348.87,-30.06l-469.83 0 0 1233.3 123.74 0c125.16,0 218.84,-8.39 281.77,-24.47 63.61,-16.79 114.66,-45.45 154.51,-88.1 38.45,-39.14 67.12,-85.99 85.99,-139.82 18.18,-53.84 33.56,-133.55 46.14,-238.41l46.15 2.1 -8.39 1096.97 -46.15 0c-12.58,-105.57 -30.76,-190.17 -54.53,-254.49 -23.77,-64.32 -57.34,-118.86 -99.98,-163.61 -41.24,-44.04 -94.38,-76.2 -160.8,-96.48 -65.72,-20.28 -149.63,-30.77 -251,-30.77l-117.45 0 0 469.13c0,186.67 4.9,323.01 14.68,408.31 9.1,85.3 27.97,156.61 55.24,213.93 46.85,97.88 118.16,169.89 213.95,216.05 95.78,45.44 222.32,68.51 378.93,68.51 163.61,0 300.64,-20.98 411.1,-62.22 110.47,-41.95 199.95,-106.27 269.88,-193.67 48.94,-58.73 88.79,-125.84 119.55,-200.66 30.06,-74.81 58.73,-174.08 84.6,-297.13l46.14 2.09 -25.18 814.51 -2445.62 0 0 -46.14c78.3,-4.2 141.92,-15.38 190.16,-32.87 48.95,-17.47 92.29,-46.14 130.75,-85.99 42.65,-44.05 72.01,-99.98 87.39,-167.1 16.08,-67.82 23.77,-171.29 23.77,-311.12l0 -1511.56c0,-139.83 -7.69,-243.31 -23.77,-311.12 -15.38,-67.82 -44.75,-123.05 -87.39,-167.1 -37.06,-39.85 -79.7,-68.52 -128.65,-85.99 -48.24,-17.48 -112.56,-28.67 -192.26,-32.87l0 -46.14 2202.32 0z"/>
   <path id="_2_13" class="fil0" d="M20935.53 2401l0 1784.24c0,141.23 7.68,244.7 23.76,311.82 15.38,67.13 44.75,122.35 86.7,166.4 38.46,39.85 81.8,68.52 130.04,85.99 48.94,17.48 111.86,28.67 189.47,32.87l0 46.14 -943.85 0 0 -46.14c77.6,-4.2 140.53,-15.38 189.47,-32.87 48.25,-17.47 91.59,-46.14 130.04,-85.99 41.95,-44.05 71.32,-99.98 86.7,-167.1 16.08,-67.82 23.77,-171.29 23.77,-311.12l0 -1513.66c0,-138.43 -7.69,-241.21 -23.77,-309.02 -15.38,-67.82 -44.75,-123.05 -86.7,-167.1 -37.06,-39.85 -79.7,-68.52 -127.94,-85.99 -48.94,-17.48 -112.56,-28.67 -191.57,-32.87l0 -46.14 788.64 0 1663.28 2124.01 0 -1480.8c0,-141.23 -7.69,-244.7 -23.77,-311.82 -15.38,-67.13 -44.75,-122.35 -86.7,-166.4 -38.45,-39.85 -81.79,-68.52 -130.04,-85.99 -48.94,-17.48 -111.86,-28.67 -189.47,-32.87l0 -46.14 943.85 0 0 46.14c-136.33,0 -242.6,39.85 -319.51,118.86 -41.95,44.05 -71.32,99.28 -86.69,167.1 -16.09,67.81 -23.77,170.59 -23.77,309.02l0 2156.88 -92.29 0 -1929.65 -2427.45z"/>
   <path id="_3_14" class="fil0" d="M24490.01 2093.38c-86,0 -178.28,2.8 -276.86,8.39 -211.15,10.49 -367.76,37.06 -471.23,79.7 -103.47,42.65 -188.77,115.36 -255.19,219.53 -62.22,95.78 -109.07,225.83 -141.92,389.43l-46.15 -4.2 37.76 -755.78 2768.63 0 37.75 755.78 -46.15 4.2c-37.04,-189.47 -94.38,-333.5 -173.39,-431.37 -78.3,-97.88 -192.96,-167.81 -343.28,-210.45 -126.55,-37.06 -341.89,-55.22 -645.32,-55.22l0 2091.85c0,139.83 7.69,243.3 23.77,311.12 15.38,67.82 44.75,123.05 87.39,167.1 38.45,39.85 81.8,68.52 130.74,85.99 48.24,17.48 111.86,28.67 190.17,32.87l0 46.14 -1308.81 0 0 -46.14c79.01,-4.2 143.33,-15.38 191.57,-32.87 48.24,-17.47 91.59,-46.14 130.04,-85.99 41.95,-44.05 71.32,-99.28 86.7,-166.4 16.08,-67.12 23.77,-170.59 23.77,-311.82l0 -2091.85z"/>
   <path class="fil0" d="M3884.43 3460.91l0 725.02c0,139.83 7.69,243.31 23.77,310.42 16.08,67.82 44.75,123.75 87.39,167.1 37.06,38.45 80.4,66.42 129.34,85.3 48.95,18.18 112.57,29.36 192.97,33.56l0 46.14 -1308.11 0 0 -46.14c79,-4.2 142.62,-15.38 191.57,-33.56 48.24,-18.88 90.89,-46.85 127.94,-85.3 43.34,-44.05 72.71,-99.28 88.09,-166.4 14.69,-67.12 22.38,-170.59 22.38,-311.82l0 -1511.56c0,-141.23 -7.69,-244.7 -22.38,-311.82 -15.38,-67.13 -44.75,-122.35 -88.09,-166.4 -37.06,-39.85 -79.7,-68.52 -129.35,-85.99 -48.94,-17.48 -112.56,-28.67 -190.16,-32.87l0 -46.14 987.9 0c165,0 273.36,0.7 325.8,2.1 211.85,9.78 377.54,38.45 497.8,85.99 135.63,54.54 240.5,136.33 314.61,245.4 74.81,108.37 111.86,234.92 111.86,378.25 0,213.24 -80.4,383.83 -241.91,512.48 -48.94,38.45 -103.47,69.91 -162.9,94.38 -59.43,24.47 -139.14,48.24 -238.41,69.91 80.4,34.26 140.53,69.92 178.98,106.27 31.46,28.67 59.43,65.03 85.3,107.67 25.18,43.34 63.62,119.55 114.67,228.62 121.64,250.29 213.24,433.47 275.46,548.84 62.23,115.36 114.66,199.26 156.61,250.99 34.26,42.65 67.12,72.01 99.29,88.09 32.16,16.79 76.2,27.28 132.13,32.87l0 46.14 -676.07 0c-34.26,-74.81 -55.93,-123.05 -65.72,-143.33l-143.33 -325.81c-86.69,-195.06 -173.39,-367.75 -260.78,-517.36 -87.39,-148.92 -167.79,-251 -240.51,-305.53 -37.04,-27.28 -76.9,-46.85 -118.85,-58.03 -42.65,-11.89 -95.09,-17.48 -156.61,-17.48l-100.68 0zm0 -46.14l78.3 0c170.6,0 292.95,-9.79 366.36,-28.67 73.41,-19.57 142.63,-58.73 206.95,-118.86 144.73,-137.03 216.74,-306.92 216.74,-508.98 0,-108.37 -20.98,-209.75 -62.93,-304.83 -41.95,-95.09 -99.98,-173.39 -174.08,-234.91 -58.03,-46.85 -126.55,-79.01 -206.25,-97.19 -79.7,-18.88 -193.67,-27.96 -340.48,-27.96l-84.6 0 0 1321.39z"/>
   <path id="_1_15" class="fil0" d="M6820.86 2030.45l0 46.14c-77.6,4.2 -140.53,15.38 -189.48,32.87 -48.24,17.47 -91.58,46.14 -130.04,85.99 -53.14,54.53 -85.99,130.74 -97.87,227.93 -8.4,72.71 -12.59,155.9 -12.59,250.29l0 1511.56c0,113.96 5.59,203.45 16.08,269.17 11.18,65.03 28.67,118.16 53.83,157.31 34.96,55.24 81.11,95.78 137.04,122.35 55.93,26.57 130.04,42.66 223.03,48.25l0 46.14 -1304.61 0 0 -46.14c79,-4.2 142.62,-15.38 191.57,-33.56 48.24,-18.88 90.89,-46.85 127.94,-85.3 43.34,-44.05 72.71,-99.28 88.09,-166.4 14.69,-67.12 22.38,-170.59 22.38,-311.82l0 -1511.56c0,-141.23 -7.69,-244.7 -22.38,-311.82 -15.38,-67.13 -44.75,-122.35 -88.09,-166.4 -37.06,-39.85 -79.7,-68.52 -129.35,-85.99 -48.94,-17.48 -112.56,-28.67 -190.16,-32.87l0 -46.14 1304.61 0z"/>
   <path id="_2_16" class="fil0" d="M8382.77 2030.45l0 46.14c-77.6,4.2 -140.53,15.38 -189.48,32.87 -48.24,17.47 -91.58,46.14 -130.04,85.99 -53.14,54.53 -85.99,130.74 -97.87,227.93 -8.4,72.71 -12.59,155.9 -12.59,250.29l0 1511.56c0,113.96 5.59,203.45 16.08,269.17 11.18,65.03 28.67,118.16 53.83,157.31 34.96,55.24 81.11,95.78 137.04,122.35 55.93,26.57 130.04,42.66 223.03,48.25l0 46.14 -1304.61 0 0 -46.14c79,-4.2 142.62,-15.38 191.57,-33.56 48.24,-18.88 90.89,-46.85 127.94,-85.3 43.34,-44.05 72.71,-99.28 88.09,-166.4 14.69,-67.12 22.38,-170.59 22.38,-311.82l0 -1511.56c0,-141.23 -7.69,-244.7 -22.38,-311.82 -15.38,-67.13 -44.75,-122.35 -88.09,-166.4 -37.06,-39.85 -79.7,-68.52 -129.35,-85.99 -48.94,-17.48 -112.56,-28.67 -190.16,-32.87l0 -46.14 1304.61 0z"/>
   <path id="_3_17" class="fil0" d="M8472.25 4815.86l6.3 -847.37 48.24 8.39c57.32,215.35 125.84,384.54 205.55,508.29 148.92,228.62 336.99,343.28 562.82,343.28 158,0 288.05,-52.44 390.82,-158 102.78,-104.88 153.81,-238.41 153.81,-399.22 0,-69.91 -11.18,-141.23 -34.26,-213.24 -22.37,-72.71 -52.44,-134.94 -90.89,-186.67 -39.85,-53.14 -95.78,-104.17 -167.79,-153.81 -72.01,-48.95 -181.79,-111.17 -330.01,-186.67 -130.74,-65.03 -230.01,-120.96 -299.23,-165.71 -69.22,-45.44 -125.15,-90.89 -167.79,-137.03 -118.16,-128.65 -176.89,-285.26 -176.89,-469.83 0,-113.27 23.08,-222.33 69.22,-327.91 45.44,-104.87 109.76,-195.06 192.27,-270.56 145.42,-133.55 318.11,-200.66 516.67,-200.66 65.02,0 124.45,6.29 179.69,18.88 54.53,13.28 127.94,38.46 220.23,76.91 68.51,27.26 115.36,44.75 139.82,51.74 25.18,7.68 46.85,11.18 66.42,11.18 47.54,0 79.7,-34.26 96.48,-104.17l46.15 0 12.59 813.81 -46.15 0c-37.06,-130.04 -68.52,-230.03 -95.78,-299.24 -26.57,-69.22 -58.03,-132.84 -95.09,-191.57 -67.12,-106.97 -141.23,-185.97 -221.63,-237.71 -81.11,-51.05 -174.09,-76.91 -279.66,-76.91 -153.12,0 -274.07,51.73 -363.56,155.9 -37.06,42.65 -65.72,92.99 -86.7,150.32 -21.67,57.34 -32.16,114.66 -32.16,172.69 0,228.62 146.82,412.5 441.16,552.33l288.75 139.82c223.03,105.57 383.83,222.33 481.71,349.58 112.57,142.63 168.5,308.32 168.5,497.09 0,125.15 -25.18,244.7 -76.21,358.66 -71.32,158.71 -178.28,281.76 -320.22,367.76 -142.62,85.99 -310.41,129.34 -504.08,129.34 -176.89,0 -346.78,-34.96 -509.68,-105.56 -85.3,-37.76 -135.63,-58.74 -152.42,-64.33 -16.08,-5.59 -34.96,-8.39 -55.22,-8.39 -65.72,0 -111.17,32.87 -135.63,98.58l-46.15 0z"/>
   <circle class="fil1 str0" cx="9248.15" cy="6326.5" r="120.58"/>
   <circle class="fil1 str0" cx="15417.42" cy="6326.5" r="120.58"/>
   <line class="fil2 str1" x1="16.26" y1="5202.34" x2="26143.58" y2= "5425.11" />
  </g>
 </g>
</svg>
