<?xml version="1.0" encoding="utf-8"?>
<!-- Generator: Adobe Illustrator 25.2.3, SVG Export Plug-In . SVG Version: 6.00 Build 0)  -->
<svg version="1.1" id="Layer_1" xmlns="http://www.w3.org/2000/svg" xmlns:xlink="http://www.w3.org/1999/xlink" x="0px" y="0px"
	 viewBox="0 0 1599.68 1133.86" style="enable-background:new 0 0 1599.68 1133.86;" xml:space="preserve">
<style type="text/css">
	.st0{fill:#040000;}
</style>
<g>
	<polygon class="st0" points="248.62,633.25 320.19,561.69 492.88,811.61 649.64,811.61 412.21,469.67 638.29,243.6 473.56,243.6 
		248.62,470.8 248.62,16.39 117.98,16.39 117.98,811.61 248.62,811.61 	"/>
	<path class="st0" d="M1368.71,232.23c-70.43,0-144.27,28.4-187.44,101.11c-34.08-68.16-98.84-101.11-179.49-101.11
		c-70.43,0-132.92,32.95-170.4,92.02V243.6H700.72v568.02h130.65V494.66c0-92.02,62.48-152.23,131.78-152.23h7.95
		c70.43,0,99.98,44.31,99.98,121.56v347.62h130.65V494.66c0-92.02,62.48-152.23,131.78-152.23h7.95
		c70.43,0,99.97,44.31,99.97,121.56v528.26H678.05h-79.57H15.74v109.06h582.74h79.57h894.01V443.53
		C1572.06,321.98,1509.58,232.23,1368.71,232.23z"/>
</g>
</svg>
