<?xml version="1.0" encoding="utf-8"?>
<!-- Generator: Adobe Illustrator 25.2.3, SVG Export Plug-In . SVG Version: 6.00 Build 0)  -->
<svg version="1.1" id="Layer_1" xmlns="http://www.w3.org/2000/svg" xmlns:xlink="http://www.w3.org/1999/xlink" x="0px" y="0px"
	 viewBox="0 0 3374.56 526.98" style="enable-background:new 0 0 3374.56 526.98;" xml:space="preserve">
<g>
	<polygon points="118.69,297.1 149.93,265.86 225.31,374.95 293.73,374.95 190.1,225.7 288.78,127.02 216.88,127.02 118.69,226.19 
		118.69,27.85 61.67,27.85 61.67,374.95 118.69,374.95 	"/>
	<path d="M397.84,379.91c36.7,0,62.98-19.84,75.37-45.62v40.66h57.03V127.02h-57.03v136.36c0,40.66-25.78,69.92-55.54,69.92h-4.46
		c-27.27,0-42.15-18.35-42.15-54.05V127.02h-57.03v160.66C314.04,341.24,341.32,379.91,397.84,379.91z"/>
	<rect x="585.26" y="27.85" width="57.03" height="347.11"/>
	<path d="M723.6,314.95c0,38.68,21.32,60,60,60h61.49v-49.09h-40.16c-19.34,0-24.3-4.96-24.3-24.3V174.13h57.02v-47.11h-57.02V46.69
		H723.6v80.33h-52.56v47.11h52.56V314.95z"/>
	<path d="M961.59,379.91c36.7,0,62.98-19.84,75.37-45.62v40.66h57.03V127.02h-57.03v136.36c0,40.66-25.78,69.92-55.54,69.92h-4.46
		c-27.27,0-42.15-18.35-42.15-54.05V127.02h-57.03v160.66C877.79,341.24,905.07,379.91,961.59,379.91z"/>
	<path d="M1206.03,247.52c0-45.13,23.31-69.42,66.45-69.42h21.32v-53.56h-16.86c-34.71,0-61.99,19.84-71.9,54.05v-51.57h-56.03
		v247.93h57.03V247.52z"/>
	<path d="M1380.56,236.61c0-40.17,27.27-66.45,57.52-66.45h3.47c30.74,0,43.64,19.34,43.64,53.06v151.73h57.03V236.61
		c0-40.17,27.27-66.45,57.52-66.45h3.47c30.74,0,43.64,19.34,43.64,53.06v151.73h57.03V214.29c0-53.06-27.27-92.23-88.76-92.23
		c-30.74,0-62.97,12.4-81.82,44.13c-14.88-29.75-43.14-44.13-78.35-44.13c-30.74,0-58.02,14.38-74.38,40.17v-35.21h-57.03v247.93
		h57.03V236.61z"/>
	<path d="M1832.75,227.18c-45.12,3.47-90.25,24.8-90.25,79.84c0,43.14,35.7,72.89,81.32,72.89c35.7,0,63.47-17.36,75.87-39.17
		c0.49,7.44,0.99,24.79,2.98,34.21h53.55c-2.48-17.35-2.48-39.67-2.48-54.55V213.3c0-54.54-38.68-91.24-102.65-91.24
		c-59.5,0-99.67,33.72-103.64,79.83h57.03c1.98-18.84,19.84-33.22,45.62-33.22h2.48c28.27,0,45.62,18.35,45.62,46.12v6.94
		L1832.75,227.18z M1898.2,278.76c0,31.24-31.24,54.55-60.99,54.55h-3.47c-19.83,0-34.71-12.4-34.71-29.76
		c0-21.32,20.33-32.23,41.65-34.21l57.52-4.96V278.76z"/>
	<path d="M2098.02,334.79h-4.47c-26.28,0-46.11-14.88-47.11-39.67h-58.02c0.99,51.57,38.18,84.79,104.63,84.79
		c62.97,0,100.17-32.23,100.17-75.37c0-41.65-25.79-63.47-68.93-73.39l-35.7-8.43c-22.31-4.96-33.23-13.88-33.23-27.77
		c0-15.87,15.37-27.77,37.19-27.77h4.47c25.29,0,39.17,16.36,41.65,39.67h57.03c0-51.57-35.21-84.79-99.67-84.79
		c-57.03,0-97.69,29.75-97.69,76.36c0,41.16,28.27,62.48,74.88,73.39l34.21,7.44c20.83,4.46,28.76,13.39,28.76,27.77
		C2136.2,323.88,2120.33,334.79,2098.02,334.79z"/>
	<polygon points="2293.36,297.1 2324.6,265.86 2399.97,374.95 2468.4,374.95 2364.77,225.7 2463.45,127.02 2391.54,127.02 
		2293.36,226.19 2293.36,27.85 2236.34,27.85 2236.34,374.95 2293.36,374.95 	"/>
	<rect x="2488.21" y="27.85" width="61.99" height="61.49"/>
	<rect x="2490.7" y="127.02" width="57.03" height="247.93"/>
	<path d="M2659.77,236.61c0-40.17,27.77-67.93,59.5-67.93h4.46c28.76,0,43.64,19.84,43.64,53.06v153.22h57.03V213.3
		c0-53.55-29.25-91.24-87.77-91.24c-35.21,0-61.98,16.86-76.86,40.66v-35.7h-57.03v247.93h57.03V236.61z"/>
	<path d="M2980.08,379.91c57.52,0,97.69-31.74,108.1-81.32h-56.53c-4.96,20.83-23.31,34.71-48.1,34.71h-2.98
		c-28.76,0-59.5-23.8-62.48-67.44h170.08c0.49-8.43,0.99-16.86,0.99-25.29c0-68.43-39.67-118.51-110.08-118.51
		c-67.44,0-116.53,49.59-116.53,128.93C2862.56,334.79,2918.09,379.91,2980.08,379.91z M2976.11,168.67h3.47
		c27.77,0,51.57,17.35,53.56,53.06h-113.55C2924.04,185.53,2949.33,168.67,2976.11,168.67z"/>
	<path d="M3264.68,122.06c-35.21,0-61.98,16.86-76.86,40.66v-35.7h-57.03v247.93h57.03V236.61c0-40.17,27.77-67.93,59.5-67.93h4.46
		c28.76,0,43.64,19.84,43.64,53.06V453.8h-176.01h-33.25h-219.62h-34.74h-238.97h-34.72h-77.32h-34.73h-220.12h-34.24h-195.32
		h-34.73h-215.64h-32.77h-399.61h-34.73h-139.79h-34.73h-234.5h-34.73H687.41h-34.72h-77.32h-34.74h-234.5H271.4H17.04v47.6H271.4
		h34.73h234.5h34.74h77.32h34.72h147.74h34.73h234.5h34.73h139.79h34.73h399.61h32.77h215.64h34.73h195.32h34.24h220.12h34.73h77.32
		h34.72h238.97h34.74h219.62h33.25h233.03V213.3C3352.45,159.75,3323.2,122.06,3264.68,122.06z"/>
</g>
</svg>
